<svg width="16" height="17" viewBox="0 0 16 17" fill="none" xmlns="http://www.w3.org/2000/svg">
<g clip-path="url(#clip0_1945_30585)">
<path d="M15.7495 0.876947C15.9459 1.0173 16.0262 1.20443 15.9905 1.43835L13.7049 14.912C13.6751 15.0816 13.5799 15.2132 13.4192 15.3068C13.3359 15.3536 13.2436 15.3769 13.1424 15.3769C13.077 15.3769 13.0055 15.3623 12.9282 15.3331L8.22301 13.4471L5.56241 16.3155C5.45528 16.4383 5.3154 16.4998 5.14279 16.4998C5.05946 16.4998 4.99101 16.4881 4.93744 16.4647C4.82435 16.4237 4.73507 16.355 4.6696 16.2585C4.60412 16.162 4.57139 16.0553 4.57139 15.9384V11.9734L0.357288 10.2805C0.13706 10.1986 0.0180178 10.0378 0.000161442 9.798C-0.0176949 9.56993 0.0775389 9.39742 0.285863 9.28046L15.1423 0.859403C15.3507 0.736596 15.553 0.742444 15.7495 0.876947ZM12.696 14.0261L14.6691 2.42081L1.86615 9.67519L4.86602 10.8769L12.571 5.27168L8.30336 12.2629L12.696 14.0261Z" fill="#6B6B6B"/>
</g>
<defs>
<clipPath id="clip0_1945_30585">
<rect width="16" height="16" fill="white" transform="translate(0 0.5)"/>
</clipPath>
</defs>
</svg>
