<svg width="12" height="12" viewBox="0 0 12 12" fill="none" xmlns="http://www.w3.org/2000/svg">
<path d="M6.00005 0.668946C5.74955 0.668721 5.50324 0.733174 5.28496 0.856066C5.06669 0.978957 4.88383 1.15612 4.75411 1.37041L0.699308 8.13858C0.570513 8.35879 0.501797 8.60896 0.500035 8.86406C0.498272 9.11917 0.563525 9.37026 0.689265 9.59223C0.815005 9.8142 0.996825 9.99926 1.21654 10.1289C1.43625 10.2585 1.68615 10.3282 1.94125 10.331H10.0533C10.3082 10.3292 10.5582 10.2605 10.7782 10.1319C10.9983 10.0033 11.1807 9.81925 11.3074 9.59807C11.434 9.37689 11.5005 9.12636 11.5 8.87148C11.4995 8.6166 11.4322 8.36631 11.3048 8.14558L7.24699 1.37291C7.11712 1.15835 6.93416 0.980855 6.71575 0.857553C6.49735 0.73425 6.25086 0.669294 6.00005 0.668946Z" fill="#2C2C2C"/>
</svg>
