<svg width="25" height="25" viewBox="0 0 25 25" fill="none" xmlns="http://www.w3.org/2000/svg">
<path d="M24.6001 12.3961C24.6001 14.0807 24.2796 15.6676 23.6382 17.1549C22.9993 18.6374 22.1312 19.9295 21.0337 21.0289C19.9359 22.1285 18.6443 22.9984 17.1616 23.6383C15.6751 24.2797 14.0885 24.6002 12.4038 24.6002C10.7192 24.6002 9.13236 24.2798 7.64502 23.6393C6.16138 23.0003 4.86868 22.1314 3.77002 21.0318C2.67167 19.9325 1.80227 18.6415 1.16162 17.1617C0.559428 15.7706 0.240425 14.2893 0.203613 12.7193L0.199707 12.4039C0.199719 10.7193 0.520115 9.13245 1.16064 7.64511C1.80044 6.16248 2.66953 4.87055 3.76807 3.77109C4.86664 2.67161 6.15726 1.80155 7.63818 1.16171C9.12295 0.520252 10.7096 0.199799 12.396 0.199799C14.0823 0.199811 15.6692 0.52031 17.1548 1.16171L17.7017 1.41171C18.9574 2.02082 20.0667 2.80547 21.0288 3.76523C22.1283 4.86203 22.9984 6.15287 23.6382 7.63632C24.2796 9.12372 24.6001 10.7114 24.6001 12.3961ZM22.8667 12.4C22.8667 9.47414 21.8531 7.00356 19.8247 4.97519C17.7963 2.94681 15.3258 1.9332 12.3999 1.9332C9.47405 1.9332 7.00347 2.94682 4.9751 4.97519C2.94672 7.00356 1.93311 9.47414 1.93311 12.4C1.93311 15.3259 2.94672 17.7964 4.9751 19.8248C7.00347 21.8532 9.47405 22.8668 12.3999 22.8668C15.3258 22.8668 17.7963 21.8532 19.8247 19.8248C21.8531 17.7964 22.8667 15.3259 22.8667 12.4ZM11.2095 17.5924L11.0649 17.7359L10.9243 17.5894L10.0063 16.6393L9.87061 16.4977L10.0093 16.359L13.9673 12.4L10.0063 8.44101L9.86768 8.30234L10.0044 8.16074L10.9224 7.20956L11.064 7.06308L11.2075 7.20663L16.2603 12.2584L16.4019 12.4L11.2095 17.5924Z" fill="#8B4513" stroke="#8B4513" stroke-width="0.4"/>
</svg>
