<svg width="24" height="24" viewBox="0 0 24 24" fill="none" xmlns="http://www.w3.org/2000/svg">
<path d="M16.6009 11.0136L11.7009 6.11362C11.5009 5.91362 11.4049 5.68029 11.4129 5.41362C11.4209 5.14696 11.5253 4.91362 11.7259 4.71362C11.9259 4.53029 12.1593 4.43429 12.4259 4.42562C12.6926 4.41696 12.9259 4.51296 13.1259 4.71362L19.7259 11.3136C19.8259 11.4136 19.8969 11.522 19.9389 11.6386C19.9809 11.7553 20.0013 11.8803 19.9999 12.0136C19.9986 12.147 19.9776 12.272 19.9369 12.3886C19.8963 12.5053 19.8256 12.6136 19.7249 12.7136L13.1249 19.3136C12.9416 19.497 12.7123 19.5886 12.4369 19.5886C12.1616 19.5886 11.9243 19.497 11.7249 19.3136C11.5249 19.1136 11.4249 18.876 11.4249 18.6006C11.4249 18.3253 11.5249 18.088 11.7249 17.8886L16.6009 13.0136L5.42594 13.0136C5.1426 13.0136 4.90494 12.9176 4.71294 12.7256C4.52094 12.5336 4.42527 12.2963 4.42594 12.0136C4.42661 11.731 4.5226 11.4933 4.71394 11.3006C4.90527 11.108 5.1426 11.0123 5.42594 11.0136L16.6009 11.0136Z" fill="black"/>
</svg>
