<svg width="24" height="25" viewBox="0 0 24 25" fill="none" xmlns="http://www.w3.org/2000/svg">
<path d="M23.0996 12.4961C23.0996 14.0296 22.8089 15.4736 22.2256 16.8262C21.6439 18.1759 20.8539 19.3515 19.8555 20.3516C18.857 21.3517 17.6819 22.1431 16.332 22.7256C14.9804 23.3088 13.5372 23.5996 12.0039 23.5996C10.4705 23.5996 9.02641 23.3091 7.67383 22.7266C6.32321 22.1449 5.14771 21.3536 4.14844 20.3535C3.14929 19.3535 2.35769 18.1793 1.77441 16.832C1.19032 15.4828 0.899606 14.0396 0.900391 12.5039C0.900391 10.9705 1.19094 9.52641 1.77344 8.17383C2.35593 6.82404 3.14723 5.64851 4.14648 4.64844C5.14571 3.64846 6.31985 2.85687 7.66797 2.27441C9.01804 1.69114 10.4612 1.40042 11.9961 1.40039C13.5312 1.40039 14.9752 1.69107 16.3262 2.27441C17.676 2.85608 18.8515 3.64593 19.8516 4.64355C20.8517 5.64124 21.6431 6.81633 22.2256 8.16699C22.8088 9.51941 23.0996 10.9628 23.0996 12.4961ZM21.6777 12.5C21.6777 9.79633 20.7405 7.51006 18.8652 5.63477C16.9899 3.75947 14.7037 2.82227 12 2.82227C9.29633 2.82227 7.01006 3.75947 5.13477 5.63477C3.25947 7.51006 2.32227 9.79633 2.32227 12.5C2.32227 15.2037 3.25947 17.4899 5.13477 19.3652C7.01006 21.2405 9.29633 22.1777 12 22.1777C14.7037 22.1777 16.9899 21.2405 18.8652 19.3652C20.7405 17.4899 21.6777 15.2037 21.6777 12.5ZM10.7773 17.2725L10.707 17.1992L9.86621 16.3281L9.79785 16.2568L9.86719 16.1875L13.5557 12.5L9.86523 8.8125L9.7959 8.74316L9.86328 8.67188L10.7061 7.7998L10.7764 7.72656L10.8486 7.79785L15.4795 12.4297L15.5498 12.5L10.7773 17.2725Z" fill="#6B6B6B" stroke="black" stroke-width="0.2"/>
</svg>
