<svg width="24" height="25" viewBox="0 0 24 25" fill="none" xmlns="http://www.w3.org/2000/svg">
<path d="M5.503 5.127L5.5 7.25V17.754C5.5 18.616 5.84241 19.4426 6.4519 20.0521C7.0614 20.6616 7.88805 21.004 8.75 21.004H17.366C17.2109 21.4428 16.9235 21.8227 16.5434 22.0913C16.1634 22.36 15.7094 22.5041 15.244 22.504H8.75C7.49022 22.504 6.28204 22.0036 5.39124 21.1128C4.50045 20.222 4 19.0138 4 17.754V7.25C4 6.27 4.627 5.435 5.503 5.127ZM17.75 2.5C18.0455 2.5 18.3381 2.5582 18.611 2.67127C18.884 2.78434 19.1321 2.95008 19.341 3.15901C19.5499 3.36794 19.7157 3.61598 19.8287 3.88896C19.9418 4.16194 20 4.45453 20 4.75V17.75C20 18.0455 19.9418 18.3381 19.8287 18.611C19.7157 18.884 19.5499 19.1321 19.341 19.341C19.1321 19.5499 18.884 19.7157 18.611 19.8287C18.3381 19.9418 18.0455 20 17.75 20H8.75C8.15326 20 7.58097 19.7629 7.15901 19.341C6.73705 18.919 6.5 18.3467 6.5 17.75V4.75C6.5 4.15326 6.73705 3.58097 7.15901 3.15901C7.58097 2.73705 8.15326 2.5 8.75 2.5H17.75ZM17.75 4H8.75C8.55109 4 8.36032 4.07902 8.21967 4.21967C8.07902 4.36032 8 4.55109 8 4.75V17.75C8 18.164 8.336 18.5 8.75 18.5H17.75C17.9489 18.5 18.1397 18.421 18.2803 18.2803C18.421 18.1397 18.5 17.9489 18.5 17.75V4.75C18.5 4.55109 18.421 4.36032 18.2803 4.21967C18.1397 4.07902 17.9489 4 17.75 4Z" fill="#2C2C2C"/>
</svg>
