<svg width="15" height="11" viewBox="0 0 15 11" fill="none" xmlns="http://www.w3.org/2000/svg">
<path d="M7.33338 3.33332L11.3334 7.33332M11.3334 3.33332L7.33338 7.33332M6.00004 0.666656C5.66876 0.666675 5.34936 0.790018 5.10404 1.01266L0.885377 4.83932C0.816523 4.90181 0.761503 4.97802 0.723851 5.06303C0.686199 5.14805 0.666748 5.24001 0.666748 5.33299C0.666748 5.42597 0.686199 5.51793 0.723851 5.60295C0.761503 5.68796 0.816523 5.76417 0.885377 5.82666L5.10404 9.65399C5.34936 9.87663 5.66876 9.99997 6.00004 9.99999H12.6667C13.0203 9.99999 13.3595 9.85951 13.6095 9.60947C13.8596 9.35942 14 9.02028 14 8.66666V1.99999C14 1.64637 13.8596 1.30723 13.6095 1.05718C13.3595 0.807132 13.0203 0.666656 12.6667 0.666656H6.00004Z" stroke="#B22222" stroke-width="1.33333" stroke-linecap="round" stroke-linejoin="round"/>
</svg>
