<svg width="16" height="16" viewBox="0 0 16 16" fill="none" xmlns="http://www.w3.org/2000/svg">
<path d="M14.6654 7.9987V13.332C14.6654 13.6857 14.5249 14.0248 14.2749 14.2748C14.0248 14.5249 13.6857 14.6654 13.3321 14.6654H2.66541C2.31178 14.6654 1.97264 14.5249 1.7226 14.2748C1.47255 14.0248 1.33207 13.6857 1.33207 13.332V7.9987C1.15526 7.9987 0.985692 7.92846 0.860667 7.80344C0.735643 7.67841 0.665405 7.50884 0.665405 7.33203V5.33203C0.665405 4.97841 0.805881 4.63927 1.05593 4.38922C1.30598 4.13917 1.64512 3.9987 1.99874 3.9987H4.11207C4.03673 3.78452 3.9984 3.55908 3.99874 3.33203C3.99874 2.8016 4.20945 2.29289 4.58453 1.91782C4.9596 1.54274 5.46831 1.33203 5.99874 1.33203C6.66541 1.33203 7.25207 1.66536 7.61874 2.1587V2.15203L7.99874 2.66536L8.37874 2.15203V2.1587C8.74541 1.66536 9.33207 1.33203 9.99874 1.33203C10.5292 1.33203 11.0379 1.54274 11.413 1.91782C11.788 2.29289 11.9987 2.8016 11.9987 3.33203C11.9991 3.55908 11.9608 3.78452 11.8854 3.9987H13.9987C14.3524 3.9987 14.6915 4.13917 14.9415 4.38922C15.1916 4.63927 15.3321 4.97841 15.3321 5.33203V7.33203C15.3321 7.50884 15.2618 7.67841 15.1368 7.80344C15.0118 7.92846 14.8422 7.9987 14.6654 7.9987ZM2.66541 13.332H7.33207V7.9987H2.66541V13.332ZM13.3321 13.332V7.9987H8.66541V13.332H13.3321ZM5.99874 2.66536C5.82193 2.66536 5.65236 2.7356 5.52733 2.86063C5.40231 2.98565 5.33207 3.15522 5.33207 3.33203C5.33207 3.50884 5.40231 3.67841 5.52733 3.80344C5.65236 3.92846 5.82193 3.9987 5.99874 3.9987C6.17555 3.9987 6.34512 3.92846 6.47014 3.80344C6.59517 3.67841 6.66541 3.50884 6.66541 3.33203C6.66541 3.15522 6.59517 2.98565 6.47014 2.86063C6.34512 2.7356 6.17555 2.66536 5.99874 2.66536ZM9.99874 2.66536C9.82193 2.66536 9.65236 2.7356 9.52733 2.86063C9.40231 2.98565 9.33207 3.15522 9.33207 3.33203C9.33207 3.50884 9.40231 3.67841 9.52733 3.80344C9.65236 3.92846 9.82193 3.9987 9.99874 3.9987C10.1755 3.9987 10.3451 3.92846 10.4701 3.80344C10.5952 3.67841 10.6654 3.50884 10.6654 3.33203C10.6654 3.15522 10.5952 2.98565 10.4701 2.86063C10.3451 2.7356 10.1755 2.66536 9.99874 2.66536ZM1.99874 5.33203V6.66536H7.33207V5.33203H1.99874ZM8.66541 5.33203V6.66536H13.9987V5.33203H8.66541Z" fill="#2C2C2C"/>
</svg>
