<svg width="36" height="36" viewBox="0 0 36 36" fill="none" xmlns="http://www.w3.org/2000/svg">
<path d="M18 8.09961C18.2235 8.09961 18.4397 8.18531 18.6055 8.33887L28.7441 17.7207H25.9004V26.9824C25.9003 27.2263 25.8047 27.4599 25.6357 27.6318C25.4668 27.8038 25.2381 27.9004 25 27.9004H11C10.7619 27.9004 10.5332 27.8038 10.3643 27.6318C10.1953 27.4599 10.0997 27.2263 10.0996 26.9824V17.7207H7.25586L17.3945 8.33887C17.5603 8.18531 17.7765 8.09961 18 8.09961ZM15.4053 19.957C15.4301 20.6215 15.697 21.2542 16.1611 21.7266C16.6486 22.2226 17.31 22.502 18 22.502C18.69 22.502 19.3514 22.2226 19.8389 21.7266C20.303 21.2542 20.5699 20.6215 20.5947 19.957H22.3975C22.3722 21.1096 21.9125 22.2089 21.1104 23.0254C20.285 23.8655 19.1664 24.3369 18 24.3369C16.8336 24.3369 15.715 23.8655 14.8896 23.0254C14.0875 22.2089 13.6278 21.1096 13.6025 19.957H15.4053ZM24.0996 15.9014L24.0684 15.8721L18.0684 10.3203L18 10.2568L17.9316 10.3203L11.9316 15.8721L11.9004 15.9014V26.0645H24.0996V15.9014Z" fill="#6B8E23" stroke="#FAFAFA" stroke-width="0.2"/>
</svg>
