<svg width="24" height="24" viewBox="0 0 24 24" fill="none" xmlns="http://www.w3.org/2000/svg">
<path d="M2 14.2V9.8C2 5.6519 2 3.5773 3.2892 2.2892C4.5784 1.0011 6.6519 1 10.8 1H13C17.1481 1 19.2227 1 20.5108 2.2892C21.7989 3.5784 21.8 5.6519 21.8 9.8V14.2C21.8 18.3481 21.8 20.4227 20.5108 21.7108C19.2216 22.9989 17.1481 23 13 23H10.8C6.6519 23 4.5773 23 3.2892 21.7108C2.0011 20.4216 2 18.3481 2 14.2Z" stroke="black" stroke-width="1.5" stroke-linecap="round" stroke-linejoin="round"/>
<path d="M11.1663 10.5336C12.3268 11.6941 13.8558 12.8733 13.8558 12.8733L15.9502 10.7778C15.9502 10.7778 14.771 9.2488 13.6116 8.0883C12.45 6.9289 10.921 5.7486 10.921 5.7486L8.8266 7.8441C8.8266 7.8441 10.0058 9.3731 11.1663 10.5336ZM11.1663 10.5336L7.5 14.1999M16.3 10.428L13.506 13.222M11.273 5.3999L8.479 8.1939M7.5 18.5999H16.3" stroke="black" stroke-width="1.5" stroke-linecap="round" stroke-linejoin="round"/>
</svg>
