<svg width="24" height="24" viewBox="0 0 24 24" fill="none" xmlns="http://www.w3.org/2000/svg">
<path d="M12.4995 6.52344C13.408 6.60621 14.2821 6.91317 15.0425 7.41797C15.8145 7.93051 16.445 8.63007 16.8745 9.45117C17.3039 10.2722 17.5188 11.1889 17.4995 12.1152C17.4802 13.0415 17.2264 13.9476 16.7632 14.75C16.2999 15.5524 15.6417 16.2252 14.8491 16.7051C14.0564 17.185 13.1548 17.4566 12.229 17.4951C11.3033 17.5336 10.3829 17.338 9.55322 16.9258C8.73607 16.5198 8.0342 15.916 7.5083 15.1709L11.9976 12.5771L11.9985 12.5781C12.051 12.548 12.1225 12.5075 12.1821 12.4648C12.2508 12.4157 12.3351 12.3415 12.3999 12.2275C12.4634 12.1166 12.4854 12.0093 12.4937 11.9268C12.5009 11.8537 12.4995 11.7716 12.4995 11.7109V6.52344Z" fill="#2C2C2C" stroke="#2C2C2C"/>
<path d="M12 21C16.9706 21 21 16.9706 21 12C21 7.02944 16.9706 3 12 3C7.02944 3 3 7.02944 3 12C3 16.9706 7.02944 21 12 21Z" stroke="#2C2C2C" stroke-width="2"/>
</svg>
