<svg width="48" height="48" viewBox="0 0 48 48" fill="none" xmlns="http://www.w3.org/2000/svg">
<path d="M23.7881 0.513672C29.8869 0.27626 36.3963 3.12083 40.6875 7.42676C48.9468 15.7145 49.8234 29.093 42.6191 38.3965C38.2707 44.012 31.34 47.5182 24.2246 47.499H23.7939C11.75 47.4796 1.58446 38.0106 0.581055 26.0078C-0.541997 12.5731 10.1982 0.439147 23.7656 0.514648H23.7773L23.7881 0.513672ZM23.0381 3.44629L23.0225 3.44727L23.0078 3.44824C17.6795 3.98336 13.2323 5.74312 9.43262 9.63281C2.75278 16.4713 1.73958 26.959 6.76758 35.0898C7.20374 35.7951 7.7021 36.5795 8.29102 37.2373L8.88672 37.9033L9.14258 37.0479C9.76679 34.9584 10.3991 33.2815 11.3711 31.8535C12.3363 30.4355 13.6553 29.2356 15.6885 28.1377C16.4921 27.7038 17.9012 27.0224 18.7637 26.7764C20.8685 27.8065 22.3919 28.422 25.0439 28.2236L25.084 28.2207L25.123 28.2109C25.9511 28.0118 26.9163 27.8541 27.8057 27.4795C28.0998 27.3556 28.3781 27.1987 28.623 27.0625C28.8161 26.9551 28.9913 26.8588 29.1641 26.7803C33.0323 28.1351 35.8571 29.7243 37.7412 33.5918C38.2778 34.6931 38.5453 35.8049 38.9238 37.0498L39.2324 38.0635L39.8184 37.1807C39.9674 36.9564 40.1307 36.7385 40.3037 36.5107C40.474 36.2866 40.6561 36.05 40.8271 35.8047C50.4706 21.9697 40.1224 2.76224 23.0381 3.44629Z" fill="#FFF8DC" stroke="#E8E8E8"/>
<path d="M23.6768 11.0183C30.0314 10.7656 33.3663 18.1973 29.1035 22.6863C27.8953 23.9585 26.155 24.7325 24.3369 24.8162C20.4172 24.8813 17.1866 22.2047 16.9492 18.5378C16.6986 14.6625 19.559 11.2719 23.6768 11.0183Z" fill="#FFF8DC" stroke="#E8E8E8" stroke-width="2"/>
</svg>
