<svg width="16" height="16" viewBox="0 0 16 16" fill="none" xmlns="http://www.w3.org/2000/svg">
<path d="M6.91113 2.27246C8.00687 1.80242 9.21323 1.67932 10.377 1.91895C11.5408 2.15872 12.6096 2.75062 13.4473 3.61816C14.2849 4.48567 14.8542 5.59064 15.085 6.79199C15.3156 7.99312 15.1977 9.23825 14.7451 10.3701C14.2924 11.5022 13.5247 12.4712 12.5391 13.1533C11.5534 13.8354 10.3939 14.2002 9.20703 14.2002H9.00684V12.7998H9.20703C10.1206 12.7998 11.0146 12.5197 11.7754 11.9932C12.5363 11.4666 13.1304 10.7168 13.4814 9.83887C13.8324 8.96105 13.9241 7.99481 13.7451 7.0625C13.566 6.13007 13.1243 5.27438 12.4766 4.60352C11.8289 3.93273 11.0047 3.47665 10.1084 3.29199C9.21219 3.10736 8.28316 3.20211 7.43848 3.56445C6.59367 3.92688 5.87066 4.54156 5.36133 5.33105C4.85202 6.12058 4.5791 7.04919 4.5791 8V10.6045L5.97363 9.16113L6.11719 9.01172L6.26074 9.16113L6.93652 9.86133L7.07129 10L6.93652 10.1387L4.04004 13.1387L3.89648 13.2881L3.75293 13.1387L0.856445 10.1387L0.72168 10L0.856445 9.86133L1.53223 9.16113L1.67578 9.01172L1.81934 9.16113L3.21387 10.6045V8C3.21387 6.77548 3.56424 5.57787 4.22168 4.55859C4.87936 3.53915 5.81526 2.7426 6.91113 2.27246Z" fill="#A0522D" stroke="#A0522D" stroke-width="0.4"/>
</svg>
