<svg width="36" height="36" viewBox="0 0 36 36" fill="none" xmlns="http://www.w3.org/2000/svg">
<path d="M10 11.6V6H14.8V11.5573L10 11.6Z" stroke="#6B8E23" stroke-width="1.5" stroke-linecap="round" stroke-linejoin="round"/>
<path d="M15.6 18.8H6.85333C6.62702 18.8 6.40997 18.7101 6.24994 18.5501C6.0899 18.39 6 18.173 6 17.9467V6.85333C6 6.62702 6.0899 6.40997 6.24994 6.24994C6.40997 6.0899 6.62702 6 6.85333 6H18M21.2 9.2C21.2 8.35131 21.5371 7.53737 22.1373 6.93726C22.7374 6.33714 23.5513 6 24.4 6C25.2487 6 26.0626 6.33714 26.6627 6.93726C27.2629 7.53737 27.6 8.35131 27.6 9.2H18.5333M27.024 12.144C26.7276 12.564 26.3344 12.9063 25.8776 13.1421C25.4209 13.3779 24.914 13.5002 24.4 13.4987C23.885 13.499 23.3776 13.3751 22.9208 13.1374C22.464 12.8997 22.0712 12.5553 21.776 12.1333M30 20.6667C30 19.9313 29.8552 19.2031 29.5737 18.5236C29.2923 17.8442 28.8798 17.2269 28.3598 16.7069C27.8398 16.1869 27.2225 15.7744 26.543 15.4929C25.8636 15.2115 25.1354 15.0667 24.4 15.0667C23.6646 15.0667 22.9364 15.2115 22.257 15.4929C21.5775 15.7744 20.9602 16.1869 20.4402 16.7069C19.9202 17.2269 19.5077 17.8442 19.2263 18.5236C18.9448 19.2031 18.8 19.9313 18.8 20.6667V22H21.2L22 30H26.8L27.6 22H30V20.6667Z" stroke="#6B8E23" stroke-width="1.5" stroke-linecap="round" stroke-linejoin="round"/>
</svg>
