<svg width="37" height="23" viewBox="0 0 37 23" fill="none" xmlns="http://www.w3.org/2000/svg">
<path d="M7.56 0.439941C3.40524 0.439941 0 3.83474 0 7.97834C0 9.58394 0.51264 11.0761 1.3806 12.3027L6.63768 21.3905C7.37388 22.3524 7.86348 22.1699 8.47584 21.3401L14.274 11.4725C14.391 11.2601 14.4828 11.0347 14.5631 10.8043C14.9307 9.90752 15.1199 8.94759 15.12 7.97834C15.12 3.83474 11.7158 0.439941 7.56 0.439941ZM7.56 3.97226C9.79776 3.97226 11.5776 5.74742 11.5776 7.9787C11.5776 10.21 9.7974 11.9844 7.56 11.9844C5.3226 11.9844 3.5424 10.2096 3.5424 7.9787C3.5424 5.74778 5.32296 3.97226 7.56 3.97226Z" fill="#2C2C2C"/>
<path fill-rule="evenodd" clip-rule="evenodd" d="M36.1326 0C35.3236 0.018 34.5126 0.0522001 33.7 0.11232L33.8253 2.10384C34.6058 2.04726 35.3876 2.01089 36.17 1.99476L36.1326 0ZM31.8216 0.2952C30.5724 0.45036 29.3124 0.6714 28.0668 1.02672L28.5358 2.95668C29.6677 2.63412 30.8406 2.42568 32.0318 2.27772L31.8216 0.2952ZM26.2016 1.69488C25.8284 1.8596 25.467 2.05002 25.1202 2.26476L25.1187 2.26656L25.1166 2.26728C24.6216 2.57904 24.0999 2.97468 23.674 3.5496C23.3655 3.96612 23.1132 4.4928 23.0541 5.1156L24.8883 5.319C24.902 5.17284 24.9769 4.97988 25.1115 4.79844H25.1122V4.79772C25.3293 4.50396 25.6548 4.2372 26.0418 3.99312L26.0432 3.9924C26.3193 3.8225 26.6065 3.67144 26.9029 3.54024L26.2016 1.69488ZM25.2573 6.20748L24.0682 7.73208C24.3501 7.98984 24.6457 8.18784 24.9312 8.35344L24.9348 8.35524L24.9384 8.3574C25.8859 8.89632 26.8629 9.20052 27.7687 9.48924L28.2892 7.57476C27.3838 7.28604 26.5303 7.0074 25.7988 6.59196C25.5892 6.47028 25.4056 6.3432 25.2573 6.20748ZM30.0579 8.11332L29.5496 10.031L29.7901 10.1059L30.0853 10.2002C31.0623 10.5181 31.9983 10.8576 32.835 11.3274L33.6838 9.5562C32.6722 8.98776 31.6221 8.61624 30.6102 8.2872L30.6073 8.28648L30.3042 8.18964L30.0579 8.11332ZM35.41 10.8853L34.1058 12.2965C34.4139 12.6302 34.6447 13.0316 34.757 13.4464L34.7577 13.4485L34.7584 13.4518C34.8924 13.936 34.8927 14.5055 34.788 15.0808L36.5966 15.4667C36.7442 14.6545 36.768 13.7628 36.5253 12.8826C36.314 12.1043 35.9108 11.4282 35.41 10.8853ZM34.1565 16.2832C33.9569 16.4934 33.7367 16.683 33.4992 16.8491H33.4984C32.8504 17.3048 32.0988 17.6483 31.3003 17.9435L31.8957 19.8313C32.7691 19.5084 33.6658 19.1124 34.5039 18.5227L34.5061 18.5209L34.5072 18.5202C34.8513 18.2791 35.1696 18.0032 35.4572 17.6969L34.1565 16.2832ZM29.6061 18.4752C28.4494 18.7862 27.2672 19.0231 26.0706 19.224L26.3528 21.1964C27.5844 20.9894 28.821 20.7421 30.05 20.4116L29.6061 18.4752ZM24.2702 19.4962C23.0656 19.6607 21.8546 19.795 20.64 19.9094L20.7991 21.8974C22.0324 21.7814 23.268 21.645 24.5017 21.4762L24.2702 19.4962ZM18.8144 20.066C17.5972 20.1625 16.3772 20.241 15.1561 20.3072L15.2482 22.3002C16.4812 22.2336 17.7153 22.154 18.949 22.0561L18.8144 20.066ZM13.3212 20.3972C12.5893 20.4314 11.8556 20.4595 11.1201 20.4854L11.1806 22.4802C11.9207 22.4548 12.6606 22.4252 13.4004 22.3916L13.3212 20.3972Z" fill="#2C2C2C"/>
</svg>
