<svg width="24" height="24" viewBox="0 0 24 24" fill="none" xmlns="http://www.w3.org/2000/svg">
<g clip-path="url(#clip0_1304_13282)">
<mask id="path-1-outside-1_1304_13282" maskUnits="userSpaceOnUse" x="-1.36133" y="0.941406" width="26" height="21" fill="black">
<rect fill="white" x="-1.36133" y="0.941406" width="26" height="21"/>
<path d="M4.2194 1.94764C4.29288 1.94754 4.36637 1.94743 4.43985 1.94729C4.6411 1.94698 4.84236 1.94699 5.04362 1.94705C5.26094 1.94706 5.47826 1.94678 5.69558 1.94654C6.1211 1.94612 6.54663 1.94598 6.97215 1.94595C7.31813 1.94593 7.66411 1.94582 8.01009 1.94566C8.99155 1.94522 9.97301 1.94499 10.9545 1.94502C11.0073 1.94503 11.0602 1.94503 11.1147 1.94503C11.1677 1.94503 11.2206 1.94503 11.2752 1.94504C12.1332 1.94506 12.9911 1.94457 13.8491 1.94386C14.7306 1.94313 15.6121 1.94279 16.4936 1.94283C16.9883 1.94285 17.483 1.94271 17.9777 1.94216C18.3989 1.9417 18.8201 1.94159 19.2413 1.94194C19.456 1.9421 19.6708 1.94211 19.8855 1.94167C20.0824 1.94127 20.2793 1.94134 20.4762 1.94178C20.5472 1.94186 20.6181 1.94177 20.689 1.94149C21.5376 1.93833 22.3226 2.05281 22.9621 2.66072C23.3315 3.08901 23.6113 3.57589 23.6128 4.1481C23.6131 4.23008 23.6131 4.23008 23.6135 4.31372C23.6136 4.37348 23.6136 4.43323 23.6136 4.4948C23.6138 4.55851 23.614 4.62222 23.6143 4.68786C23.6149 4.86459 23.6152 5.04133 23.6154 5.21806C23.6157 5.40873 23.6163 5.59939 23.6168 5.79006C23.6181 6.25049 23.6188 6.71092 23.6195 7.17135C23.6196 7.30147 23.6198 7.43158 23.6201 7.56169C23.6213 8.37019 23.6224 9.17869 23.6231 9.98719C23.6232 10.1744 23.6234 10.3616 23.6235 10.5488C23.6236 10.5953 23.6236 10.6418 23.6236 10.6898C23.6243 11.443 23.6259 12.1963 23.6281 12.9495C23.6302 13.7234 23.6314 14.4973 23.6317 15.2712C23.6318 15.7054 23.6324 16.1397 23.6341 16.574C23.6355 16.944 23.6361 17.3139 23.6355 17.6838C23.6352 17.8724 23.6354 18.061 23.6366 18.2495C23.638 18.4545 23.6373 18.6594 23.6365 18.8644C23.6372 18.9233 23.6379 18.9821 23.6387 19.0427C23.6324 19.6945 23.3898 20.2684 22.949 20.7488C22.2228 21.3861 21.4714 21.4723 20.5317 21.469C20.4582 21.4691 20.3848 21.4692 20.3113 21.4694C20.1112 21.4699 19.911 21.4697 19.7109 21.4693C19.4944 21.4691 19.2779 21.4695 19.0614 21.4697C18.6379 21.4702 18.2145 21.4701 17.7911 21.4698C17.4468 21.4696 17.1025 21.4695 16.7583 21.4697C16.7092 21.4697 16.6601 21.4697 16.6095 21.4697C16.5098 21.4697 16.41 21.4698 16.3103 21.4698C15.3761 21.4701 14.442 21.4698 13.5078 21.4692C12.7071 21.4688 11.9064 21.4688 11.1056 21.4693C10.1746 21.4699 9.24362 21.4701 8.31262 21.4698C8.21327 21.4697 8.11391 21.4697 8.01456 21.4697C7.96568 21.4696 7.9168 21.4696 7.86644 21.4696C7.52275 21.4695 7.17905 21.4697 6.83536 21.4699C6.41629 21.4702 5.99723 21.4701 5.57816 21.4696C5.36454 21.4693 5.15091 21.4692 4.93729 21.4695C4.74142 21.4698 4.54556 21.4697 4.3497 21.4691C4.27916 21.469 4.20862 21.4691 4.13808 21.4693C3.18969 21.4724 2.49363 21.3272 1.79267 20.6653C1.33471 20.1776 1.15606 19.5464 1.1623 18.893C1.16228 18.8515 1.16227 18.8101 1.16225 18.7674C1.16232 18.632 1.16311 18.4967 1.1639 18.3614C1.16409 18.2669 1.16424 18.1724 1.16434 18.0779C1.16472 17.8305 1.16571 17.5831 1.16683 17.3357C1.16787 17.0827 1.16833 16.8297 1.16884 16.5767C1.16992 16.0812 1.17164 15.5857 1.17377 15.0903C1.13836 15.0916 1.10295 15.0929 1.06647 15.0943C0.905422 15.0996 0.74439 15.1028 0.583287 15.1061C0.527571 15.1082 0.471855 15.1103 0.414451 15.1125C0.000362098 15.1187 0.000362098 15.1187 -0.200801 14.9725C-0.31704 14.7995 -0.348205 14.6738 -0.349004 14.4701C-0.349293 14.426 -0.349581 14.382 -0.349879 14.3366C-0.349935 14.2884 -0.349991 14.2402 -0.35005 14.1906C-0.3503 14.1397 -0.350551 14.0888 -0.35081 14.0364C-0.351549 13.8679 -0.351892 13.6993 -0.352171 13.5308C-0.352462 13.4138 -0.352753 13.2968 -0.353044 13.1798C-0.353575 12.9344 -0.35387 12.689 -0.354046 12.4436C-0.354323 12.1291 -0.355538 11.8145 -0.356975 11.4999C-0.357916 11.2582 -0.358179 11.0165 -0.358256 10.7749C-0.358409 10.6589 -0.358816 10.5429 -0.359478 10.4269C-0.360339 10.2647 -0.360246 10.1025 -0.359917 9.94035C-0.360383 9.89236 -0.360848 9.84438 -0.361328 9.79494C-0.359778 9.5506 -0.35793 9.37182 -0.190341 9.17913C0.0443828 8.9657 0.335733 9.01065 0.63381 9.01809C0.685683 9.01877 0.737557 9.01946 0.791003 9.02016C0.918619 9.02194 1.04618 9.02443 1.17377 9.02756C1.17343 8.96688 1.1731 8.9062 1.17275 8.84368C1.16967 8.26988 1.1674 7.6961 1.16592 7.1223C1.16513 6.82735 1.16406 6.53241 1.16234 6.23747C1.16068 5.95247 1.15978 5.66748 1.15939 5.38247C1.15911 5.27411 1.15857 5.16575 1.15775 5.05739C1.15103 4.13577 1.20684 3.3506 1.87161 2.64276C2.55517 2.00925 3.32898 1.94655 4.2194 1.94764ZM2.58841 3.47007C2.26285 3.87763 2.21944 4.27458 2.22843 4.7805C2.22889 4.82951 2.22934 4.87852 2.22981 4.92901C2.23099 5.04898 2.23265 5.16893 2.23475 5.28889C2.28437 5.25411 2.28437 5.25411 2.335 5.21863C2.83276 4.88398 3.35468 4.67662 3.95916 4.67603C4.05316 4.67576 4.05316 4.67576 4.14906 4.67548C4.21846 4.67553 4.28786 4.67558 4.35726 4.67564C4.4311 4.67552 4.50494 4.67537 4.57878 4.67521C4.78172 4.67482 4.98467 4.67474 5.18762 4.6747C5.40649 4.67461 5.62536 4.67422 5.84423 4.67387C6.22356 4.67329 6.6029 4.67287 6.98224 4.67255C7.58194 4.67203 8.18163 4.67099 8.78133 4.66987C8.98653 4.66949 9.19172 4.66911 9.39692 4.66874C9.47384 4.6686 9.47384 4.6686 9.55231 4.66846C10.1361 4.6674 10.7198 4.66645 11.3036 4.66554C11.3569 4.66546 11.4103 4.66538 11.4653 4.66529C12.3299 4.66397 13.1945 4.66302 14.0591 4.66218C14.9469 4.6613 15.8346 4.65984 16.7224 4.65789C17.2699 4.65671 17.8174 4.656 18.3649 4.6559C18.7403 4.6558 19.1156 4.65514 19.4909 4.65406C19.7074 4.65345 19.9238 4.65309 20.1403 4.65339C20.3387 4.65366 20.5371 4.65323 20.7354 4.65225C20.807 4.65202 20.8786 4.65204 20.9501 4.65235C21.4315 4.65423 21.928 4.64375 22.3207 4.32896C22.353 4.30395 22.3854 4.27894 22.4187 4.25317C22.5075 4.17546 22.5075 4.17546 22.5449 4.02582C22.417 3.65078 22.1855 3.38436 21.8573 3.17266C21.4551 2.98539 21.0447 3.00092 20.61 3.0022C20.5365 3.00204 20.4629 3.00185 20.3894 3.00161C20.1879 3.00109 19.9865 3.0012 19.785 3.00142C19.5675 3.00154 19.35 3.00109 19.1325 3.00071C18.7066 3.00006 18.2807 2.99997 17.8548 3.00009C17.5085 3.00018 17.1623 3.00009 16.8161 2.99988C16.7668 2.99985 16.7175 2.99982 16.6667 2.99979C16.5666 2.99973 16.4664 2.99967 16.3663 2.9996C15.4273 2.99905 14.4883 2.99916 13.5493 2.99947C12.6906 2.99973 11.8319 2.99916 10.9732 2.9982C10.0911 2.99722 9.20905 2.99681 8.32698 2.997C7.8319 2.99709 7.33683 2.99697 6.84175 2.99625C6.42029 2.99565 5.99884 2.99558 5.57737 2.99619C5.36243 2.99649 5.14749 2.99655 4.93255 2.99594C4.73559 2.99539 4.53864 2.99555 4.34167 2.99626C4.27062 2.99639 4.19956 2.99627 4.12851 2.99587C3.5427 2.99276 3.02224 3.04107 2.58841 3.47007ZM22.1336 5.34079C21.8942 5.42221 21.6784 5.44679 21.4259 5.44704C21.3631 5.44722 21.3002 5.4474 21.2355 5.44759C21.1659 5.44754 21.0963 5.44749 21.0267 5.44743C20.9526 5.44755 20.8786 5.4477 20.8046 5.44786C20.601 5.44825 20.3975 5.44833 20.194 5.44837C19.9745 5.44846 19.755 5.44885 19.5355 5.4492C19.1551 5.44978 18.7747 5.4502 18.3943 5.45052C17.7929 5.45104 17.1915 5.45208 16.5901 5.4532C16.3843 5.45358 16.1785 5.45396 15.9728 5.45433C15.8956 5.45447 15.8956 5.45447 15.8169 5.45461C15.2315 5.45567 14.6461 5.45662 14.0607 5.45753C14.0072 5.45761 13.9537 5.45769 13.8985 5.45778C13.0315 5.45911 12.1645 5.46005 11.2974 5.46089C10.4071 5.46177 9.51682 5.46323 8.62653 5.46518C8.07747 5.46636 7.52841 5.46707 6.97935 5.46717C6.60296 5.46727 6.22658 5.46793 5.8502 5.46901C5.63311 5.46962 5.41602 5.46998 5.19893 5.46968C5 5.46941 4.80108 5.46984 4.60215 5.47082C4.53037 5.47105 4.4586 5.47103 4.38683 5.47072C3.7081 5.46808 3.17781 5.57394 2.67761 6.05403C2.30871 6.44918 2.21128 6.75508 2.21994 7.28591C2.22016 7.33588 2.22037 7.38584 2.22059 7.43732C2.22144 7.59586 2.22334 7.75437 2.22527 7.91291C2.22603 8.02083 2.22673 8.12875 2.22735 8.23667C2.22901 8.50031 2.23154 8.76393 2.23475 9.02756C2.30053 9.02786 2.36632 9.02816 2.4341 9.02846C3.05409 9.03135 3.67407 9.03503 4.29405 9.03947C4.61279 9.04173 4.93152 9.04372 5.25027 9.04507C5.55788 9.04638 5.86547 9.04842 6.17307 9.05096C6.29042 9.05181 6.40778 9.05239 6.52513 9.0527C6.68952 9.05319 6.85387 9.05461 7.01824 9.05624C7.09101 9.05613 7.09101 9.05613 7.16525 9.05602C7.42785 9.05971 7.61671 9.08024 7.84276 9.22965C7.90193 9.348 7.90014 9.41864 7.90106 9.55056C7.90149 9.59674 7.90193 9.64292 7.90238 9.69051C7.90259 9.74132 7.90281 9.79213 7.90303 9.84449C7.90365 9.92459 7.90365 9.92459 7.90428 10.0063C7.90554 10.1836 7.90637 10.3608 7.9071 10.5381C7.90737 10.5985 7.90764 10.6589 7.90791 10.7212C7.90927 11.0408 7.91024 11.3604 7.91097 11.6801C7.91181 12.0108 7.91408 12.3415 7.91665 12.6722C7.91835 12.9261 7.91893 13.1799 7.91922 13.4337C7.91956 13.5556 7.92033 13.6776 7.92154 13.7995C7.92313 13.97 7.92314 14.1404 7.92276 14.3108C7.92359 14.3614 7.92442 14.412 7.92528 14.4642C7.92226 14.7975 7.92226 14.7975 7.79794 14.9699C7.56927 15.0715 7.36351 15.0686 7.11575 15.0673C7.06298 15.0679 7.01022 15.0684 6.95585 15.0689C6.78171 15.0704 6.6076 15.0705 6.43346 15.0705C6.31261 15.0713 6.19177 15.0721 6.07093 15.0731C5.75307 15.0753 5.43521 15.0763 5.11734 15.0771C4.79291 15.078 4.46848 15.0802 4.14405 15.0822C3.50762 15.086 2.87119 15.0886 2.23475 15.0903C2.23123 15.616 2.22854 16.1417 2.22689 16.6674C2.2261 16.9116 2.22503 17.1557 2.22331 17.3999C2.22166 17.6357 2.22076 17.8716 2.22037 18.1075C2.22009 18.1972 2.21954 18.2869 2.21872 18.3767C2.21316 19.0095 2.22285 19.5602 2.68945 20.0415C3.14488 20.4062 3.60449 20.41 4.16698 20.4087C4.24087 20.4089 4.31476 20.4091 4.38865 20.4094C4.59127 20.41 4.79389 20.41 4.99652 20.4099C5.21521 20.4098 5.43391 20.4104 5.65261 20.4109C6.08092 20.4117 6.50924 20.412 6.93756 20.412C7.28578 20.4121 7.634 20.4123 7.98223 20.4126C8.96983 20.4135 9.95743 20.414 10.945 20.4139C11.0249 20.4139 11.0249 20.4139 11.1063 20.4139C11.1863 20.4139 11.1863 20.4139 11.2678 20.4139C12.1314 20.4138 12.995 20.4148 13.8586 20.4162C14.7456 20.4177 15.6326 20.4184 16.5197 20.4183C17.0175 20.4183 17.5154 20.4185 18.0133 20.4196C18.4372 20.4205 18.8611 20.4208 19.285 20.4201C19.5012 20.4197 19.7174 20.4197 19.9336 20.4206C20.1317 20.4214 20.3299 20.4213 20.528 20.4204C20.5994 20.4202 20.6709 20.4204 20.7423 20.421C21.2815 20.425 21.8069 20.369 22.2165 19.9831C22.4624 19.6808 22.6018 19.3271 22.6016 18.9392C22.6017 18.89 22.6018 18.8409 22.6019 18.7902C22.6017 18.7094 22.6017 18.7094 22.6015 18.627C22.6015 18.5697 22.6015 18.5124 22.6016 18.4533C22.6017 18.2605 22.6014 18.0678 22.6011 17.875C22.6011 17.7371 22.6011 17.5992 22.6011 17.4613C22.6012 17.164 22.601 16.8667 22.6007 16.5695C22.6003 16.1397 22.6002 15.7099 22.6001 15.2801C22.6 14.5828 22.5997 13.8855 22.5992 13.1882C22.5987 12.5108 22.5984 11.8334 22.5982 11.156C22.5981 11.1142 22.5981 11.0725 22.5981 11.0294C22.598 10.82 22.598 10.6106 22.5979 10.4011C22.5974 8.66336 22.5965 6.9256 22.5954 5.18784C22.4445 5.18784 22.2733 5.28811 22.1336 5.34079ZM0.516976 9.88645C0.516976 11.3203 0.516976 12.7541 0.516976 14.2314C2.6844 14.2314 4.85182 14.2314 7.08492 14.2314C7.08492 12.7976 7.08492 11.3637 7.08492 9.88645C4.9175 9.88645 2.75008 9.88645 0.516976 9.88645Z"/>
</mask>
<path d="M4.2194 1.94764C4.29288 1.94754 4.36637 1.94743 4.43985 1.94729C4.6411 1.94698 4.84236 1.94699 5.04362 1.94705C5.26094 1.94706 5.47826 1.94678 5.69558 1.94654C6.1211 1.94612 6.54663 1.94598 6.97215 1.94595C7.31813 1.94593 7.66411 1.94582 8.01009 1.94566C8.99155 1.94522 9.97301 1.94499 10.9545 1.94502C11.0073 1.94503 11.0602 1.94503 11.1147 1.94503C11.1677 1.94503 11.2206 1.94503 11.2752 1.94504C12.1332 1.94506 12.9911 1.94457 13.8491 1.94386C14.7306 1.94313 15.6121 1.94279 16.4936 1.94283C16.9883 1.94285 17.483 1.94271 17.9777 1.94216C18.3989 1.9417 18.8201 1.94159 19.2413 1.94194C19.456 1.9421 19.6708 1.94211 19.8855 1.94167C20.0824 1.94127 20.2793 1.94134 20.4762 1.94178C20.5472 1.94186 20.6181 1.94177 20.689 1.94149C21.5376 1.93833 22.3226 2.05281 22.9621 2.66072C23.3315 3.08901 23.6113 3.57589 23.6128 4.1481C23.6131 4.23008 23.6131 4.23008 23.6135 4.31372C23.6136 4.37348 23.6136 4.43323 23.6136 4.4948C23.6138 4.55851 23.614 4.62222 23.6143 4.68786C23.6149 4.86459 23.6152 5.04133 23.6154 5.21806C23.6157 5.40873 23.6163 5.59939 23.6168 5.79006C23.6181 6.25049 23.6188 6.71092 23.6195 7.17135C23.6196 7.30147 23.6198 7.43158 23.6201 7.56169C23.6213 8.37019 23.6224 9.17869 23.6231 9.98719C23.6232 10.1744 23.6234 10.3616 23.6235 10.5488C23.6236 10.5953 23.6236 10.6418 23.6236 10.6898C23.6243 11.443 23.6259 12.1963 23.6281 12.9495C23.6302 13.7234 23.6314 14.4973 23.6317 15.2712C23.6318 15.7054 23.6324 16.1397 23.6341 16.574C23.6355 16.944 23.6361 17.3139 23.6355 17.6838C23.6352 17.8724 23.6354 18.061 23.6366 18.2495C23.638 18.4545 23.6373 18.6594 23.6365 18.8644C23.6372 18.9233 23.6379 18.9821 23.6387 19.0427C23.6324 19.6945 23.3898 20.2684 22.949 20.7488C22.2228 21.3861 21.4714 21.4723 20.5317 21.469C20.4582 21.4691 20.3848 21.4692 20.3113 21.4694C20.1112 21.4699 19.911 21.4697 19.7109 21.4693C19.4944 21.4691 19.2779 21.4695 19.0614 21.4697C18.6379 21.4702 18.2145 21.4701 17.7911 21.4698C17.4468 21.4696 17.1025 21.4695 16.7583 21.4697C16.7092 21.4697 16.6601 21.4697 16.6095 21.4697C16.5098 21.4697 16.41 21.4698 16.3103 21.4698C15.3761 21.4701 14.442 21.4698 13.5078 21.4692C12.7071 21.4688 11.9064 21.4688 11.1056 21.4693C10.1746 21.4699 9.24362 21.4701 8.31262 21.4698C8.21327 21.4697 8.11391 21.4697 8.01456 21.4697C7.96568 21.4696 7.9168 21.4696 7.86644 21.4696C7.52275 21.4695 7.17905 21.4697 6.83536 21.4699C6.41629 21.4702 5.99723 21.4701 5.57816 21.4696C5.36454 21.4693 5.15091 21.4692 4.93729 21.4695C4.74142 21.4698 4.54556 21.4697 4.3497 21.4691C4.27916 21.469 4.20862 21.4691 4.13808 21.4693C3.18969 21.4724 2.49363 21.3272 1.79267 20.6653C1.33471 20.1776 1.15606 19.5464 1.1623 18.893C1.16228 18.8515 1.16227 18.8101 1.16225 18.7674C1.16232 18.632 1.16311 18.4967 1.1639 18.3614C1.16409 18.2669 1.16424 18.1724 1.16434 18.0779C1.16472 17.8305 1.16571 17.5831 1.16683 17.3357C1.16787 17.0827 1.16833 16.8297 1.16884 16.5767C1.16992 16.0812 1.17164 15.5857 1.17377 15.0903C1.13836 15.0916 1.10295 15.0929 1.06647 15.0943C0.905422 15.0996 0.74439 15.1028 0.583287 15.1061C0.527571 15.1082 0.471855 15.1103 0.414451 15.1125C0.000362098 15.1187 0.000362098 15.1187 -0.200801 14.9725C-0.31704 14.7995 -0.348205 14.6738 -0.349004 14.4701C-0.349293 14.426 -0.349581 14.382 -0.349879 14.3366C-0.349935 14.2884 -0.349991 14.2402 -0.35005 14.1906C-0.3503 14.1397 -0.350551 14.0888 -0.35081 14.0364C-0.351549 13.8679 -0.351892 13.6993 -0.352171 13.5308C-0.352462 13.4138 -0.352753 13.2968 -0.353044 13.1798C-0.353575 12.9344 -0.35387 12.689 -0.354046 12.4436C-0.354323 12.1291 -0.355538 11.8145 -0.356975 11.4999C-0.357916 11.2582 -0.358179 11.0165 -0.358256 10.7749C-0.358409 10.6589 -0.358816 10.5429 -0.359478 10.4269C-0.360339 10.2647 -0.360246 10.1025 -0.359917 9.94035C-0.360383 9.89236 -0.360848 9.84438 -0.361328 9.79494C-0.359778 9.5506 -0.35793 9.37182 -0.190341 9.17913C0.0443828 8.9657 0.335733 9.01065 0.63381 9.01809C0.685683 9.01877 0.737557 9.01946 0.791003 9.02016C0.918619 9.02194 1.04618 9.02443 1.17377 9.02756C1.17343 8.96688 1.1731 8.9062 1.17275 8.84368C1.16967 8.26988 1.1674 7.6961 1.16592 7.1223C1.16513 6.82735 1.16406 6.53241 1.16234 6.23747C1.16068 5.95247 1.15978 5.66748 1.15939 5.38247C1.15911 5.27411 1.15857 5.16575 1.15775 5.05739C1.15103 4.13577 1.20684 3.3506 1.87161 2.64276C2.55517 2.00925 3.32898 1.94655 4.2194 1.94764ZM2.58841 3.47007C2.26285 3.87763 2.21944 4.27458 2.22843 4.7805C2.22889 4.82951 2.22934 4.87852 2.22981 4.92901C2.23099 5.04898 2.23265 5.16893 2.23475 5.28889C2.28437 5.25411 2.28437 5.25411 2.335 5.21863C2.83276 4.88398 3.35468 4.67662 3.95916 4.67603C4.05316 4.67576 4.05316 4.67576 4.14906 4.67548C4.21846 4.67553 4.28786 4.67558 4.35726 4.67564C4.4311 4.67552 4.50494 4.67537 4.57878 4.67521C4.78172 4.67482 4.98467 4.67474 5.18762 4.6747C5.40649 4.67461 5.62536 4.67422 5.84423 4.67387C6.22356 4.67329 6.6029 4.67287 6.98224 4.67255C7.58194 4.67203 8.18163 4.67099 8.78133 4.66987C8.98653 4.66949 9.19172 4.66911 9.39692 4.66874C9.47384 4.6686 9.47384 4.6686 9.55231 4.66846C10.1361 4.6674 10.7198 4.66645 11.3036 4.66554C11.3569 4.66546 11.4103 4.66538 11.4653 4.66529C12.3299 4.66397 13.1945 4.66302 14.0591 4.66218C14.9469 4.6613 15.8346 4.65984 16.7224 4.65789C17.2699 4.65671 17.8174 4.656 18.3649 4.6559C18.7403 4.6558 19.1156 4.65514 19.4909 4.65406C19.7074 4.65345 19.9238 4.65309 20.1403 4.65339C20.3387 4.65366 20.5371 4.65323 20.7354 4.65225C20.807 4.65202 20.8786 4.65204 20.9501 4.65235C21.4315 4.65423 21.928 4.64375 22.3207 4.32896C22.353 4.30395 22.3854 4.27894 22.4187 4.25317C22.5075 4.17546 22.5075 4.17546 22.5449 4.02582C22.417 3.65078 22.1855 3.38436 21.8573 3.17266C21.4551 2.98539 21.0447 3.00092 20.61 3.0022C20.5365 3.00204 20.4629 3.00185 20.3894 3.00161C20.1879 3.00109 19.9865 3.0012 19.785 3.00142C19.5675 3.00154 19.35 3.00109 19.1325 3.00071C18.7066 3.00006 18.2807 2.99997 17.8548 3.00009C17.5085 3.00018 17.1623 3.00009 16.8161 2.99988C16.7668 2.99985 16.7175 2.99982 16.6667 2.99979C16.5666 2.99973 16.4664 2.99967 16.3663 2.9996C15.4273 2.99905 14.4883 2.99916 13.5493 2.99947C12.6906 2.99973 11.8319 2.99916 10.9732 2.9982C10.0911 2.99722 9.20905 2.99681 8.32698 2.997C7.8319 2.99709 7.33683 2.99697 6.84175 2.99625C6.42029 2.99565 5.99884 2.99558 5.57737 2.99619C5.36243 2.99649 5.14749 2.99655 4.93255 2.99594C4.73559 2.99539 4.53864 2.99555 4.34167 2.99626C4.27062 2.99639 4.19956 2.99627 4.12851 2.99587C3.5427 2.99276 3.02224 3.04107 2.58841 3.47007ZM22.1336 5.34079C21.8942 5.42221 21.6784 5.44679 21.4259 5.44704C21.3631 5.44722 21.3002 5.4474 21.2355 5.44759C21.1659 5.44754 21.0963 5.44749 21.0267 5.44743C20.9526 5.44755 20.8786 5.4477 20.8046 5.44786C20.601 5.44825 20.3975 5.44833 20.194 5.44837C19.9745 5.44846 19.755 5.44885 19.5355 5.4492C19.1551 5.44978 18.7747 5.4502 18.3943 5.45052C17.7929 5.45104 17.1915 5.45208 16.5901 5.4532C16.3843 5.45358 16.1785 5.45396 15.9728 5.45433C15.8956 5.45447 15.8956 5.45447 15.8169 5.45461C15.2315 5.45567 14.6461 5.45662 14.0607 5.45753C14.0072 5.45761 13.9537 5.45769 13.8985 5.45778C13.0315 5.45911 12.1645 5.46005 11.2974 5.46089C10.4071 5.46177 9.51682 5.46323 8.62653 5.46518C8.07747 5.46636 7.52841 5.46707 6.97935 5.46717C6.60296 5.46727 6.22658 5.46793 5.8502 5.46901C5.63311 5.46962 5.41602 5.46998 5.19893 5.46968C5 5.46941 4.80108 5.46984 4.60215 5.47082C4.53037 5.47105 4.4586 5.47103 4.38683 5.47072C3.7081 5.46808 3.17781 5.57394 2.67761 6.05403C2.30871 6.44918 2.21128 6.75508 2.21994 7.28591C2.22016 7.33588 2.22037 7.38584 2.22059 7.43732C2.22144 7.59586 2.22334 7.75437 2.22527 7.91291C2.22603 8.02083 2.22673 8.12875 2.22735 8.23667C2.22901 8.50031 2.23154 8.76393 2.23475 9.02756C2.30053 9.02786 2.36632 9.02816 2.4341 9.02846C3.05409 9.03135 3.67407 9.03503 4.29405 9.03947C4.61279 9.04173 4.93152 9.04372 5.25027 9.04507C5.55788 9.04638 5.86547 9.04842 6.17307 9.05096C6.29042 9.05181 6.40778 9.05239 6.52513 9.0527C6.68952 9.05319 6.85387 9.05461 7.01824 9.05624C7.09101 9.05613 7.09101 9.05613 7.16525 9.05602C7.42785 9.05971 7.61671 9.08024 7.84276 9.22965C7.90193 9.348 7.90014 9.41864 7.90106 9.55056C7.90149 9.59674 7.90193 9.64292 7.90238 9.69051C7.90259 9.74132 7.90281 9.79213 7.90303 9.84449C7.90365 9.92459 7.90365 9.92459 7.90428 10.0063C7.90554 10.1836 7.90637 10.3608 7.9071 10.5381C7.90737 10.5985 7.90764 10.6589 7.90791 10.7212C7.90927 11.0408 7.91024 11.3604 7.91097 11.6801C7.91181 12.0108 7.91408 12.3415 7.91665 12.6722C7.91835 12.9261 7.91893 13.1799 7.91922 13.4337C7.91956 13.5556 7.92033 13.6776 7.92154 13.7995C7.92313 13.97 7.92314 14.1404 7.92276 14.3108C7.92359 14.3614 7.92442 14.412 7.92528 14.4642C7.92226 14.7975 7.92226 14.7975 7.79794 14.9699C7.56927 15.0715 7.36351 15.0686 7.11575 15.0673C7.06298 15.0679 7.01022 15.0684 6.95585 15.0689C6.78171 15.0704 6.6076 15.0705 6.43346 15.0705C6.31261 15.0713 6.19177 15.0721 6.07093 15.0731C5.75307 15.0753 5.43521 15.0763 5.11734 15.0771C4.79291 15.078 4.46848 15.0802 4.14405 15.0822C3.50762 15.086 2.87119 15.0886 2.23475 15.0903C2.23123 15.616 2.22854 16.1417 2.22689 16.6674C2.2261 16.9116 2.22503 17.1557 2.22331 17.3999C2.22166 17.6357 2.22076 17.8716 2.22037 18.1075C2.22009 18.1972 2.21954 18.2869 2.21872 18.3767C2.21316 19.0095 2.22285 19.5602 2.68945 20.0415C3.14488 20.4062 3.60449 20.41 4.16698 20.4087C4.24087 20.4089 4.31476 20.4091 4.38865 20.4094C4.59127 20.41 4.79389 20.41 4.99652 20.4099C5.21521 20.4098 5.43391 20.4104 5.65261 20.4109C6.08092 20.4117 6.50924 20.412 6.93756 20.412C7.28578 20.4121 7.634 20.4123 7.98223 20.4126C8.96983 20.4135 9.95743 20.414 10.945 20.4139C11.0249 20.4139 11.0249 20.4139 11.1063 20.4139C11.1863 20.4139 11.1863 20.4139 11.2678 20.4139C12.1314 20.4138 12.995 20.4148 13.8586 20.4162C14.7456 20.4177 15.6326 20.4184 16.5197 20.4183C17.0175 20.4183 17.5154 20.4185 18.0133 20.4196C18.4372 20.4205 18.8611 20.4208 19.285 20.4201C19.5012 20.4197 19.7174 20.4197 19.9336 20.4206C20.1317 20.4214 20.3299 20.4213 20.528 20.4204C20.5994 20.4202 20.6709 20.4204 20.7423 20.421C21.2815 20.425 21.8069 20.369 22.2165 19.9831C22.4624 19.6808 22.6018 19.3271 22.6016 18.9392C22.6017 18.89 22.6018 18.8409 22.6019 18.7902C22.6017 18.7094 22.6017 18.7094 22.6015 18.627C22.6015 18.5697 22.6015 18.5124 22.6016 18.4533C22.6017 18.2605 22.6014 18.0678 22.6011 17.875C22.6011 17.7371 22.6011 17.5992 22.6011 17.4613C22.6012 17.164 22.601 16.8667 22.6007 16.5695C22.6003 16.1397 22.6002 15.7099 22.6001 15.2801C22.6 14.5828 22.5997 13.8855 22.5992 13.1882C22.5987 12.5108 22.5984 11.8334 22.5982 11.156C22.5981 11.1142 22.5981 11.0725 22.5981 11.0294C22.598 10.82 22.598 10.6106 22.5979 10.4011C22.5974 8.66336 22.5965 6.9256 22.5954 5.18784C22.4445 5.18784 22.2733 5.28811 22.1336 5.34079ZM0.516976 9.88645C0.516976 11.3203 0.516976 12.7541 0.516976 14.2314C2.6844 14.2314 4.85182 14.2314 7.08492 14.2314C7.08492 12.7976 7.08492 11.3637 7.08492 9.88645C4.9175 9.88645 2.75008 9.88645 0.516976 9.88645Z" fill="black"/>
<path d="M4.2194 1.94764C4.29288 1.94754 4.36637 1.94743 4.43985 1.94729C4.6411 1.94698 4.84236 1.94699 5.04362 1.94705C5.26094 1.94706 5.47826 1.94678 5.69558 1.94654C6.1211 1.94612 6.54663 1.94598 6.97215 1.94595C7.31813 1.94593 7.66411 1.94582 8.01009 1.94566C8.99155 1.94522 9.97301 1.94499 10.9545 1.94502C11.0073 1.94503 11.0602 1.94503 11.1147 1.94503C11.1677 1.94503 11.2206 1.94503 11.2752 1.94504C12.1332 1.94506 12.9911 1.94457 13.8491 1.94386C14.7306 1.94313 15.6121 1.94279 16.4936 1.94283C16.9883 1.94285 17.483 1.94271 17.9777 1.94216C18.3989 1.9417 18.8201 1.94159 19.2413 1.94194C19.456 1.9421 19.6708 1.94211 19.8855 1.94167C20.0824 1.94127 20.2793 1.94134 20.4762 1.94178C20.5472 1.94186 20.6181 1.94177 20.689 1.94149C21.5376 1.93833 22.3226 2.05281 22.9621 2.66072C23.3315 3.08901 23.6113 3.57589 23.6128 4.1481C23.6131 4.23008 23.6131 4.23008 23.6135 4.31372C23.6136 4.37348 23.6136 4.43323 23.6136 4.4948C23.6138 4.55851 23.614 4.62222 23.6143 4.68786C23.6149 4.86459 23.6152 5.04133 23.6154 5.21806C23.6157 5.40873 23.6163 5.59939 23.6168 5.79006C23.6181 6.25049 23.6188 6.71092 23.6195 7.17135C23.6196 7.30147 23.6198 7.43158 23.6201 7.56169C23.6213 8.37019 23.6224 9.17869 23.6231 9.98719C23.6232 10.1744 23.6234 10.3616 23.6235 10.5488C23.6236 10.5953 23.6236 10.6418 23.6236 10.6898C23.6243 11.443 23.6259 12.1963 23.6281 12.9495C23.6302 13.7234 23.6314 14.4973 23.6317 15.2712C23.6318 15.7054 23.6324 16.1397 23.6341 16.574C23.6355 16.944 23.6361 17.3139 23.6355 17.6838C23.6352 17.8724 23.6354 18.061 23.6366 18.2495C23.638 18.4545 23.6373 18.6594 23.6365 18.8644C23.6372 18.9233 23.6379 18.9821 23.6387 19.0427C23.6324 19.6945 23.3898 20.2684 22.949 20.7488C22.2228 21.3861 21.4714 21.4723 20.5317 21.469C20.4582 21.4691 20.3848 21.4692 20.3113 21.4694C20.1112 21.4699 19.911 21.4697 19.7109 21.4693C19.4944 21.4691 19.2779 21.4695 19.0614 21.4697C18.6379 21.4702 18.2145 21.4701 17.7911 21.4698C17.4468 21.4696 17.1025 21.4695 16.7583 21.4697C16.7092 21.4697 16.6601 21.4697 16.6095 21.4697C16.5098 21.4697 16.41 21.4698 16.3103 21.4698C15.3761 21.4701 14.442 21.4698 13.5078 21.4692C12.7071 21.4688 11.9064 21.4688 11.1056 21.4693C10.1746 21.4699 9.24362 21.4701 8.31262 21.4698C8.21327 21.4697 8.11391 21.4697 8.01456 21.4697C7.96568 21.4696 7.9168 21.4696 7.86644 21.4696C7.52275 21.4695 7.17905 21.4697 6.83536 21.4699C6.41629 21.4702 5.99723 21.4701 5.57816 21.4696C5.36454 21.4693 5.15091 21.4692 4.93729 21.4695C4.74142 21.4698 4.54556 21.4697 4.3497 21.4691C4.27916 21.469 4.20862 21.4691 4.13808 21.4693C3.18969 21.4724 2.49363 21.3272 1.79267 20.6653C1.33471 20.1776 1.15606 19.5464 1.1623 18.893C1.16228 18.8515 1.16227 18.8101 1.16225 18.7674C1.16232 18.632 1.16311 18.4967 1.1639 18.3614C1.16409 18.2669 1.16424 18.1724 1.16434 18.0779C1.16472 17.8305 1.16571 17.5831 1.16683 17.3357C1.16787 17.0827 1.16833 16.8297 1.16884 16.5767C1.16992 16.0812 1.17164 15.5857 1.17377 15.0903C1.13836 15.0916 1.10295 15.0929 1.06647 15.0943C0.905422 15.0996 0.74439 15.1028 0.583287 15.1061C0.527571 15.1082 0.471855 15.1103 0.414451 15.1125C0.000362098 15.1187 0.000362098 15.1187 -0.200801 14.9725C-0.31704 14.7995 -0.348205 14.6738 -0.349004 14.4701C-0.349293 14.426 -0.349581 14.382 -0.349879 14.3366C-0.349935 14.2884 -0.349991 14.2402 -0.35005 14.1906C-0.3503 14.1397 -0.350551 14.0888 -0.35081 14.0364C-0.351549 13.8679 -0.351892 13.6993 -0.352171 13.5308C-0.352462 13.4138 -0.352753 13.2968 -0.353044 13.1798C-0.353575 12.9344 -0.35387 12.689 -0.354046 12.4436C-0.354323 12.1291 -0.355538 11.8145 -0.356975 11.4999C-0.357916 11.2582 -0.358179 11.0165 -0.358256 10.7749C-0.358409 10.6589 -0.358816 10.5429 -0.359478 10.4269C-0.360339 10.2647 -0.360246 10.1025 -0.359917 9.94035C-0.360383 9.89236 -0.360848 9.84438 -0.361328 9.79494C-0.359778 9.5506 -0.35793 9.37182 -0.190341 9.17913C0.0443828 8.9657 0.335733 9.01065 0.63381 9.01809C0.685683 9.01877 0.737557 9.01946 0.791003 9.02016C0.918619 9.02194 1.04618 9.02443 1.17377 9.02756C1.17343 8.96688 1.1731 8.9062 1.17275 8.84368C1.16967 8.26988 1.1674 7.6961 1.16592 7.1223C1.16513 6.82735 1.16406 6.53241 1.16234 6.23747C1.16068 5.95247 1.15978 5.66748 1.15939 5.38247C1.15911 5.27411 1.15857 5.16575 1.15775 5.05739C1.15103 4.13577 1.20684 3.3506 1.87161 2.64276C2.55517 2.00925 3.32898 1.94655 4.2194 1.94764ZM2.58841 3.47007C2.26285 3.87763 2.21944 4.27458 2.22843 4.7805C2.22889 4.82951 2.22934 4.87852 2.22981 4.92901C2.23099 5.04898 2.23265 5.16893 2.23475 5.28889C2.28437 5.25411 2.28437 5.25411 2.335 5.21863C2.83276 4.88398 3.35468 4.67662 3.95916 4.67603C4.05316 4.67576 4.05316 4.67576 4.14906 4.67548C4.21846 4.67553 4.28786 4.67558 4.35726 4.67564C4.4311 4.67552 4.50494 4.67537 4.57878 4.67521C4.78172 4.67482 4.98467 4.67474 5.18762 4.6747C5.40649 4.67461 5.62536 4.67422 5.84423 4.67387C6.22356 4.67329 6.6029 4.67287 6.98224 4.67255C7.58194 4.67203 8.18163 4.67099 8.78133 4.66987C8.98653 4.66949 9.19172 4.66911 9.39692 4.66874C9.47384 4.6686 9.47384 4.6686 9.55231 4.66846C10.1361 4.6674 10.7198 4.66645 11.3036 4.66554C11.3569 4.66546 11.4103 4.66538 11.4653 4.66529C12.3299 4.66397 13.1945 4.66302 14.0591 4.66218C14.9469 4.6613 15.8346 4.65984 16.7224 4.65789C17.2699 4.65671 17.8174 4.656 18.3649 4.6559C18.7403 4.6558 19.1156 4.65514 19.4909 4.65406C19.7074 4.65345 19.9238 4.65309 20.1403 4.65339C20.3387 4.65366 20.5371 4.65323 20.7354 4.65225C20.807 4.65202 20.8786 4.65204 20.9501 4.65235C21.4315 4.65423 21.928 4.64375 22.3207 4.32896C22.353 4.30395 22.3854 4.27894 22.4187 4.25317C22.5075 4.17546 22.5075 4.17546 22.5449 4.02582C22.417 3.65078 22.1855 3.38436 21.8573 3.17266C21.4551 2.98539 21.0447 3.00092 20.61 3.0022C20.5365 3.00204 20.4629 3.00185 20.3894 3.00161C20.1879 3.00109 19.9865 3.0012 19.785 3.00142C19.5675 3.00154 19.35 3.00109 19.1325 3.00071C18.7066 3.00006 18.2807 2.99997 17.8548 3.00009C17.5085 3.00018 17.1623 3.00009 16.8161 2.99988C16.7668 2.99985 16.7175 2.99982 16.6667 2.99979C16.5666 2.99973 16.4664 2.99967 16.3663 2.9996C15.4273 2.99905 14.4883 2.99916 13.5493 2.99947C12.6906 2.99973 11.8319 2.99916 10.9732 2.9982C10.0911 2.99722 9.20905 2.99681 8.32698 2.997C7.8319 2.99709 7.33683 2.99697 6.84175 2.99625C6.42029 2.99565 5.99884 2.99558 5.57737 2.99619C5.36243 2.99649 5.14749 2.99655 4.93255 2.99594C4.73559 2.99539 4.53864 2.99555 4.34167 2.99626C4.27062 2.99639 4.19956 2.99627 4.12851 2.99587C3.5427 2.99276 3.02224 3.04107 2.58841 3.47007ZM22.1336 5.34079C21.8942 5.42221 21.6784 5.44679 21.4259 5.44704C21.3631 5.44722 21.3002 5.4474 21.2355 5.44759C21.1659 5.44754 21.0963 5.44749 21.0267 5.44743C20.9526 5.44755 20.8786 5.4477 20.8046 5.44786C20.601 5.44825 20.3975 5.44833 20.194 5.44837C19.9745 5.44846 19.755 5.44885 19.5355 5.4492C19.1551 5.44978 18.7747 5.4502 18.3943 5.45052C17.7929 5.45104 17.1915 5.45208 16.5901 5.4532C16.3843 5.45358 16.1785 5.45396 15.9728 5.45433C15.8956 5.45447 15.8956 5.45447 15.8169 5.45461C15.2315 5.45567 14.6461 5.45662 14.0607 5.45753C14.0072 5.45761 13.9537 5.45769 13.8985 5.45778C13.0315 5.45911 12.1645 5.46005 11.2974 5.46089C10.4071 5.46177 9.51682 5.46323 8.62653 5.46518C8.07747 5.46636 7.52841 5.46707 6.97935 5.46717C6.60296 5.46727 6.22658 5.46793 5.8502 5.46901C5.63311 5.46962 5.41602 5.46998 5.19893 5.46968C5 5.46941 4.80108 5.46984 4.60215 5.47082C4.53037 5.47105 4.4586 5.47103 4.38683 5.47072C3.7081 5.46808 3.17781 5.57394 2.67761 6.05403C2.30871 6.44918 2.21128 6.75508 2.21994 7.28591C2.22016 7.33588 2.22037 7.38584 2.22059 7.43732C2.22144 7.59586 2.22334 7.75437 2.22527 7.91291C2.22603 8.02083 2.22673 8.12875 2.22735 8.23667C2.22901 8.50031 2.23154 8.76393 2.23475 9.02756C2.30053 9.02786 2.36632 9.02816 2.4341 9.02846C3.05409 9.03135 3.67407 9.03503 4.29405 9.03947C4.61279 9.04173 4.93152 9.04372 5.25027 9.04507C5.55788 9.04638 5.86547 9.04842 6.17307 9.05096C6.29042 9.05181 6.40778 9.05239 6.52513 9.0527C6.68952 9.05319 6.85387 9.05461 7.01824 9.05624C7.09101 9.05613 7.09101 9.05613 7.16525 9.05602C7.42785 9.05971 7.61671 9.08024 7.84276 9.22965C7.90193 9.348 7.90014 9.41864 7.90106 9.55056C7.90149 9.59674 7.90193 9.64292 7.90238 9.69051C7.90259 9.74132 7.90281 9.79213 7.90303 9.84449C7.90365 9.92459 7.90365 9.92459 7.90428 10.0063C7.90554 10.1836 7.90637 10.3608 7.9071 10.5381C7.90737 10.5985 7.90764 10.6589 7.90791 10.7212C7.90927 11.0408 7.91024 11.3604 7.91097 11.6801C7.91181 12.0108 7.91408 12.3415 7.91665 12.6722C7.91835 12.9261 7.91893 13.1799 7.91922 13.4337C7.91956 13.5556 7.92033 13.6776 7.92154 13.7995C7.92313 13.97 7.92314 14.1404 7.92276 14.3108C7.92359 14.3614 7.92442 14.412 7.92528 14.4642C7.92226 14.7975 7.92226 14.7975 7.79794 14.9699C7.56927 15.0715 7.36351 15.0686 7.11575 15.0673C7.06298 15.0679 7.01022 15.0684 6.95585 15.0689C6.78171 15.0704 6.6076 15.0705 6.43346 15.0705C6.31261 15.0713 6.19177 15.0721 6.07093 15.0731C5.75307 15.0753 5.43521 15.0763 5.11734 15.0771C4.79291 15.078 4.46848 15.0802 4.14405 15.0822C3.50762 15.086 2.87119 15.0886 2.23475 15.0903C2.23123 15.616 2.22854 16.1417 2.22689 16.6674C2.2261 16.9116 2.22503 17.1557 2.22331 17.3999C2.22166 17.6357 2.22076 17.8716 2.22037 18.1075C2.22009 18.1972 2.21954 18.2869 2.21872 18.3767C2.21316 19.0095 2.22285 19.5602 2.68945 20.0415C3.14488 20.4062 3.60449 20.41 4.16698 20.4087C4.24087 20.4089 4.31476 20.4091 4.38865 20.4094C4.59127 20.41 4.79389 20.41 4.99652 20.4099C5.21521 20.4098 5.43391 20.4104 5.65261 20.4109C6.08092 20.4117 6.50924 20.412 6.93756 20.412C7.28578 20.4121 7.634 20.4123 7.98223 20.4126C8.96983 20.4135 9.95743 20.414 10.945 20.4139C11.0249 20.4139 11.0249 20.4139 11.1063 20.4139C11.1863 20.4139 11.1863 20.4139 11.2678 20.4139C12.1314 20.4138 12.995 20.4148 13.8586 20.4162C14.7456 20.4177 15.6326 20.4184 16.5197 20.4183C17.0175 20.4183 17.5154 20.4185 18.0133 20.4196C18.4372 20.4205 18.8611 20.4208 19.285 20.4201C19.5012 20.4197 19.7174 20.4197 19.9336 20.4206C20.1317 20.4214 20.3299 20.4213 20.528 20.4204C20.5994 20.4202 20.6709 20.4204 20.7423 20.421C21.2815 20.425 21.8069 20.369 22.2165 19.9831C22.4624 19.6808 22.6018 19.3271 22.6016 18.9392C22.6017 18.89 22.6018 18.8409 22.6019 18.7902C22.6017 18.7094 22.6017 18.7094 22.6015 18.627C22.6015 18.5697 22.6015 18.5124 22.6016 18.4533C22.6017 18.2605 22.6014 18.0678 22.6011 17.875C22.6011 17.7371 22.6011 17.5992 22.6011 17.4613C22.6012 17.164 22.601 16.8667 22.6007 16.5695C22.6003 16.1397 22.6002 15.7099 22.6001 15.2801C22.6 14.5828 22.5997 13.8855 22.5992 13.1882C22.5987 12.5108 22.5984 11.8334 22.5982 11.156C22.5981 11.1142 22.5981 11.0725 22.5981 11.0294C22.598 10.82 22.598 10.6106 22.5979 10.4011C22.5974 8.66336 22.5965 6.9256 22.5954 5.18784C22.4445 5.18784 22.2733 5.28811 22.1336 5.34079ZM0.516976 9.88645C0.516976 11.3203 0.516976 12.7541 0.516976 14.2314C2.6844 14.2314 4.85182 14.2314 7.08492 14.2314C7.08492 12.7976 7.08492 11.3637 7.08492 9.88645C4.9175 9.88645 2.75008 9.88645 0.516976 9.88645Z" stroke="black" stroke-width="0.2" mask="url(#path-1-outside-1_1304_13282)"/>
<path d="M13.6221 8.41458C13.7073 8.41426 13.7073 8.41426 13.7942 8.41393C13.8566 8.41395 13.9189 8.41397 13.9832 8.414C14.0488 8.41383 14.1145 8.41366 14.1821 8.41348C14.3623 8.41304 14.5425 8.41292 14.7226 8.41289C14.8731 8.41284 15.0235 8.41265 15.1739 8.41247C15.5288 8.41206 15.8837 8.41194 16.2386 8.41197C16.6046 8.412 16.9707 8.41147 17.3367 8.41067C17.651 8.41001 17.9653 8.40974 18.2796 8.40977C18.4673 8.40979 18.655 8.40964 18.8427 8.40911C19.0521 8.40853 19.2615 8.40876 19.4708 8.40906C19.5641 8.40864 19.5641 8.40864 19.6592 8.4082C19.7163 8.40842 19.7734 8.40863 19.8322 8.40885C19.8817 8.40882 19.9312 8.40879 19.9822 8.40876C20.1301 8.4224 20.2383 8.45678 20.3712 8.52238C20.4746 8.6669 20.4853 8.78055 20.4691 8.95498C20.4664 8.9936 20.4637 9.03222 20.461 9.07201C20.4217 9.17918 20.4217 9.17918 20.3276 9.26073C20.0912 9.36512 19.8694 9.34941 19.6139 9.34555C19.5605 9.34533 19.507 9.34512 19.4519 9.3449C19.2815 9.34405 19.1111 9.34215 18.9408 9.34022C18.8251 9.33946 18.7094 9.33877 18.5937 9.33815C18.3105 9.33648 18.0272 9.33394 17.744 9.33074C17.7761 9.40341 17.7761 9.40341 17.8089 9.47755C17.8882 9.65693 17.9672 9.83641 18.0462 10.0159C18.0804 10.0937 18.1147 10.1714 18.1491 10.2491C18.1985 10.3606 18.2475 10.4723 18.2966 10.5839C18.3121 10.6188 18.3275 10.6536 18.3435 10.6895C18.4513 10.936 18.4513 10.936 18.4513 11.0485C18.5005 11.0477 18.5497 11.0469 18.6004 11.0461C18.7835 11.0434 18.9666 11.0416 19.1498 11.0402C19.2289 11.0394 19.3081 11.0384 19.3872 11.0371C19.5012 11.0352 19.6152 11.0344 19.7292 11.0337C19.7644 11.0329 19.7995 11.0321 19.8357 11.0313C20.0576 11.0313 20.1955 11.0632 20.3712 11.2001C20.4961 11.3875 20.4917 11.4835 20.4722 11.7053C20.3833 11.8662 20.346 11.899 20.1691 11.9579C20.0493 11.9644 19.9294 11.9681 19.8095 11.9704C19.7375 11.972 19.6654 11.9737 19.5934 11.9754C19.4802 11.9778 19.367 11.98 19.2538 11.982C19.1443 11.984 19.0349 11.9866 18.9254 11.9893C18.8599 11.9906 18.7945 11.9918 18.727 11.9931C18.5615 12.0076 18.4465 12.0332 18.2998 12.1095C18.2478 12.2011 18.2478 12.2011 18.2271 12.3116C18.0658 12.8679 17.7068 13.345 17.2044 13.637C16.5241 14.0063 15.8263 14.1036 15.0663 14.1809C15.0663 14.2143 15.0663 14.2476 15.0663 14.282C15.1516 14.3616 15.1516 14.3616 15.2646 14.4438C15.3076 14.4763 15.3505 14.5088 15.3947 14.5423C15.4416 14.5772 15.4885 14.6122 15.5368 14.6483C15.5849 14.6845 15.6331 14.7208 15.6826 14.7582C16.0281 15.018 16.376 15.2745 16.7247 15.5301C17.0734 15.786 17.4176 16.0477 17.7611 16.3106C17.9691 16.4698 18.1775 16.6284 18.3878 16.7848C18.4433 16.8261 18.4433 16.8261 18.4999 16.8683C18.5683 16.919 18.6368 16.9696 18.7054 17.0201C19.0318 17.2625 19.0318 17.2625 19.1586 17.4144C19.1945 17.6655 19.1986 17.7604 19.0544 17.9701C18.8615 18.1015 18.7824 18.1133 18.5524 18.0712C18.2128 17.8805 17.9062 17.6266 17.5987 17.3891C17.2539 17.1245 16.9075 16.8627 16.5567 16.606C16.1716 16.324 15.7914 16.0359 15.4124 15.7457C15.1153 15.5186 14.8155 15.2955 14.5137 15.0745C14.2251 14.8628 13.9377 14.6497 13.6548 14.4304C13.6265 14.4087 13.5981 14.387 13.5689 14.3647C13.3299 14.1775 13.1256 13.9748 13.0454 13.6757C13.0549 13.5147 13.0549 13.5147 13.0959 13.3726C13.3775 13.1848 13.723 13.2067 14.0527 13.1882C14.1521 13.1822 14.2515 13.1761 14.3509 13.1701C14.5059 13.1607 14.661 13.1516 14.8161 13.1428C16.0877 13.1028 16.0877 13.1028 17.1067 12.4274C17.2103 12.2803 17.2708 12.1236 17.3398 11.9579C17.2904 11.9583 17.2409 11.9586 17.19 11.9589C16.7239 11.962 16.2578 11.9643 15.7917 11.9658C15.5521 11.9666 15.3125 11.9676 15.0729 11.9694C14.8416 11.971 14.6103 11.9719 14.379 11.9723C14.2908 11.9726 14.2026 11.9731 14.1144 11.9739C13.9908 11.975 13.8672 11.9752 13.7436 11.9751C13.7072 11.9757 13.6708 11.9762 13.6333 11.9768C13.391 11.9753 13.2196 11.93 13.0454 11.7558C13.0351 11.6457 13.0351 11.6457 13.0328 11.5095C13.0315 11.4649 13.0302 11.4202 13.0288 11.3741C13.0454 11.2506 13.0454 11.2506 13.1125 11.1618C13.3033 11.02 13.5107 11.0417 13.7368 11.0428C13.7762 11.0428 13.8157 11.0428 13.8563 11.0428C13.9867 11.0428 14.1171 11.0432 14.2475 11.0436C14.3379 11.0437 14.4283 11.0437 14.5187 11.0438C14.7566 11.044 14.9946 11.0445 15.2326 11.045C15.4754 11.0456 15.7182 11.0458 15.961 11.046C16.4375 11.0466 16.9139 11.0475 17.3903 11.0485C17.3588 10.9426 17.3269 10.8368 17.2949 10.7311C17.2772 10.6721 17.2595 10.6132 17.2413 10.5525C17.102 10.1302 16.816 9.79623 16.4191 9.59611C15.7499 9.29411 15.0162 9.35887 14.2983 9.35925C14.1391 9.35907 13.98 9.35769 13.8208 9.3562C13.7477 9.35682 13.7477 9.35682 13.6731 9.35746C13.455 9.35503 13.331 9.35063 13.1409 9.23592C13.0249 9.10569 13.0139 9.04521 13.0201 8.87288C13.0207 8.82957 13.0212 8.78626 13.0217 8.74164C13.0497 8.60203 13.0846 8.55696 13.197 8.47186C13.3526 8.41998 13.459 8.41486 13.6221 8.41458Z" fill="black"/>
<path d="M6.37667 11.5026C6.55546 11.586 6.61972 11.6398 6.73033 11.8057C6.76485 12.0425 6.76219 12.2472 6.65455 12.4625C6.48618 12.5972 6.34006 12.6553 6.12406 12.6646C5.92177 12.6082 5.80972 12.5587 5.67251 12.3994C5.58503 12.1729 5.5823 11.9914 5.67883 11.7678C5.87785 11.5208 6.06382 11.4691 6.37667 11.5026Z" fill="black"/>
</g>
<defs>
<clipPath id="clip0_1304_13282">
<rect width="24" height="24" fill="white"/>
</clipPath>
</defs>
</svg>
