<svg width="30" height="30" viewBox="0 0 30 30" fill="none" xmlns="http://www.w3.org/2000/svg">
<path d="M0 4C0 1.79086 1.79086 0 4 0H30V26C30 28.2091 28.2091 30 26 30H0V4Z" fill="white" fill-opacity="0.75"/>
<g clip-path="url(#clip0_184_7909)">
<path d="M21.8 6.2C22.9046 6.2 23.8 7.09543 23.8 8.2V21.8C23.8 22.9046 22.9046 23.8 21.8 23.8H8.2C7.09543 23.8 6.2 22.9046 6.2 21.8V8.2C6.2 7.09543 7.09543 6.2 8.2 6.2H21.8ZM26 6C26 4.89543 25.1046 4 24 4H6C4.89543 4 4 4.89543 4 6V24C4 25.1046 4.89543 26 6 26H24C25.1046 26 26 25.1046 26 24V6ZM15 8.4C11.359 8.4 8.4 11.359 8.4 15C8.4 18.641 11.359 21.6 15 21.6C18.641 21.6 21.6 18.641 21.6 15C21.6 11.359 18.641 8.4 15 8.4Z" fill="#009900"/>
</g>
<defs>
<clipPath id="clip0_184_7909">
<rect width="22" height="22" fill="white" transform="translate(4 4)"/>
</clipPath>
</defs>
</svg>
