<svg width="1750" height="475" viewBox="0 0 1750 475" fill="none" xmlns="http://www.w3.org/2000/svg">
<path d="M1088.96 455.773C1087.94 456.506 1086.07 456.866 1083.39 456.866H1078.22C1076.82 456.866 1076.12 456.186 1076.12 454.826V446.759H1084.4C1086.58 446.759 1088.15 447.186 1089.11 448.013C1090.06 448.839 1090.52 450.133 1090.52 451.933C1090.52 453.746 1090.02 455.039 1088.96 455.773ZM1076.12 434.626C1076.12 433.279 1076.82 432.586 1078.22 432.586H1083.7C1085.75 432.586 1087.23 432.946 1088.12 433.679C1089 434.413 1089.46 435.573 1089.46 437.159C1089.46 438.773 1088.99 439.959 1088.1 440.719C1087.18 441.493 1085.71 441.879 1083.7 441.879H1076.12V434.626ZM1094.91 447.146C1094 445.893 1092.43 444.906 1090.2 444.199V443.973C1092 443.333 1093.28 442.439 1094.04 441.279C1094.82 440.146 1095.19 438.573 1095.19 436.546C1095.19 430.359 1091.38 427.253 1083.7 427.253H1076.62C1074.46 427.253 1072.91 427.759 1071.92 428.719C1070.98 429.679 1070.47 431.239 1070.47 433.399V456.066C1070.47 458.226 1070.98 459.786 1071.92 460.733C1072.91 461.706 1074.46 462.199 1076.62 462.199H1083.7C1092.08 462.199 1096.27 458.893 1096.27 452.306C1096.27 450.119 1095.82 448.386 1094.91 447.146Z" fill="#E8E8E8"/>
<path d="M1131.41 427.259H1116.2C1114.05 427.259 1112.49 427.751 1111.53 428.713C1110.56 429.687 1110.08 431.244 1110.08 433.396V456.068C1110.08 458.22 1110.56 459.777 1111.53 460.74C1112.49 461.713 1114.05 462.193 1116.2 462.193H1131.41C1132.38 462.193 1133.02 462.033 1133.34 461.713C1133.66 461.392 1133.82 460.74 1133.82 459.777V459.297C1133.82 458.324 1133.66 457.683 1133.34 457.361C1133.02 457.041 1132.38 456.869 1131.41 456.869H1117.82C1116.42 456.869 1115.72 456.193 1115.72 454.831V446.828H1129.25C1130.23 446.828 1130.87 446.667 1131.19 446.335C1131.52 446.015 1131.68 445.373 1131.68 444.412V443.919C1131.68 442.957 1131.52 442.316 1131.19 441.984C1130.87 441.663 1130.23 441.503 1129.25 441.503H1115.72V434.621C1115.72 433.271 1116.42 432.583 1117.82 432.583H1131.41C1132.38 432.583 1133.02 432.423 1133.34 432.103C1133.66 431.781 1133.82 431.129 1133.82 430.167V429.687C1133.82 428.713 1133.66 428.072 1133.34 427.751C1133.02 427.419 1132.38 427.259 1131.41 427.259Z" fill="#E8E8E8"/>
<path d="M1164.04 444.297L1156.4 439.625C1155.09 438.836 1154.18 438.16 1153.72 437.576C1153.25 437.004 1153.03 436.293 1153.03 435.434C1153.03 434.209 1153.49 433.35 1154.45 432.846C1155.39 432.354 1156.94 432.102 1159.09 432.102C1161.92 432.102 1164.46 432.48 1166.73 433.225C1167.62 433.477 1168.21 433.488 1168.47 433.26C1168.75 433.018 1168.87 432.424 1168.87 431.45V430.545C1168.87 429.686 1168.73 429.092 1168.45 428.77C1168.16 428.45 1167.53 428.141 1166.56 427.854C1164.3 427.144 1161.82 426.778 1159.09 426.778C1155.05 426.778 1152.05 427.477 1150.12 428.873C1148.18 430.27 1147.22 432.412 1147.22 435.274C1147.22 438.961 1149.01 441.881 1152.59 444.034L1160.01 448.488C1161.83 449.598 1163.06 450.481 1163.66 451.121C1164.3 451.774 1164.64 452.633 1164.64 453.698C1164.64 455.061 1164.1 456.033 1163.02 456.606C1161.95 457.178 1160.17 457.465 1157.7 457.465C1154.62 457.465 1151.72 457.041 1148.99 456.172C1148.17 455.885 1147.6 455.885 1147.28 456.148C1146.95 456.412 1146.78 457.041 1146.78 458.004V458.862C1146.78 459.721 1146.92 460.316 1147.2 460.637C1147.46 460.957 1148.04 461.266 1148.94 461.553C1151.51 462.377 1154.4 462.789 1157.59 462.789C1166.15 462.789 1170.43 459.756 1170.43 453.698C1170.43 451.59 1169.95 449.84 1168.99 448.465C1168.01 447.08 1166.36 445.694 1164.04 444.297Z" fill="#E8E8E8"/>
<path d="M1206.9 427.259H1184.49C1183.53 427.259 1182.88 427.419 1182.56 427.751C1182.24 428.072 1182.08 428.713 1182.08 429.687V430.167C1182.08 431.129 1182.24 431.781 1182.56 432.103C1182.88 432.423 1183.53 432.583 1184.49 432.583H1192.87V459.72C1192.87 460.728 1193.03 461.392 1193.36 461.713C1193.69 462.033 1194.35 462.193 1195.35 462.193H1196.1C1197.11 462.193 1197.76 462.033 1198.09 461.713C1198.41 461.392 1198.58 460.728 1198.58 459.72V432.583H1206.9C1207.87 432.583 1208.51 432.423 1208.83 432.103C1209.16 431.781 1209.32 431.129 1209.32 430.167V429.687C1209.32 428.713 1209.16 428.072 1208.83 427.751C1208.51 427.419 1207.87 427.259 1206.9 427.259Z" fill="#E8E8E8"/>
<path d="M1264.72 427.259H1250.27C1248.12 427.259 1246.56 427.751 1245.59 428.713C1244.63 429.687 1244.15 431.244 1244.15 433.396V459.72C1244.15 460.728 1244.31 461.392 1244.63 461.713C1244.95 462.033 1245.61 462.193 1246.61 462.193H1247.32C1248.32 462.193 1248.98 462.033 1249.3 461.713C1249.62 461.392 1249.78 460.728 1249.78 459.72V447.205H1262.57C1263.54 447.205 1264.19 447.045 1264.51 446.713C1264.84 446.392 1265 445.751 1265 444.777V444.297C1265 443.335 1264.84 442.683 1264.51 442.361C1264.19 442.041 1263.54 441.881 1262.57 441.881H1249.78V434.621C1249.78 433.271 1250.48 432.583 1251.88 432.583H1264.72C1265.7 432.583 1266.34 432.423 1266.66 432.103C1266.98 431.781 1267.14 431.129 1267.14 430.167V429.687C1267.14 428.713 1266.98 428.072 1266.66 427.751C1266.34 427.419 1265.7 427.259 1264.72 427.259Z" fill="#E8E8E8"/>
<path d="M1301.95 448.653C1301.95 451.693 1301.38 453.947 1300.23 455.427C1299.11 456.813 1296.84 457.533 1293.39 457.533C1289.96 457.533 1287.67 456.813 1286.58 455.427C1285.42 453.947 1284.86 451.693 1284.86 448.653V440.973C1284.86 437.813 1285.42 435.56 1286.58 434.2C1287.67 432.8 1289.96 432.093 1293.39 432.093C1296.84 432.093 1299.11 432.8 1300.23 434.2C1301.38 435.56 1301.95 437.813 1301.95 440.973V448.653ZM1304.52 430.427C1302.42 428 1298.7 426.773 1293.39 426.773C1288.1 426.773 1284.4 428 1282.27 430.427C1280.19 432.827 1279.15 436.36 1279.15 440.973V448.653C1279.15 453.307 1280.19 456.827 1282.27 459.24C1284.35 461.64 1288.06 462.84 1293.39 462.84C1298.7 462.84 1302.4 461.64 1304.47 459.24C1306.58 456.8 1307.64 453.28 1307.64 448.653V440.973C1307.64 436.36 1306.59 432.827 1304.52 430.427Z" fill="#E8E8E8"/>
<path d="M1343.78 448.653C1343.78 451.693 1343.2 453.947 1342.06 455.427C1340.95 456.813 1338.67 457.533 1335.23 457.533C1331.79 457.533 1329.52 456.813 1328.4 455.427C1327.26 453.947 1326.67 451.693 1326.67 448.653V440.973C1326.67 437.813 1327.26 435.56 1328.4 434.2C1329.52 432.8 1331.79 432.093 1335.23 432.093C1338.67 432.093 1340.95 432.8 1342.06 434.2C1343.2 435.56 1343.78 437.813 1343.78 440.973V448.653ZM1346.35 430.427C1344.23 428 1340.54 426.773 1335.23 426.773C1329.92 426.773 1326.22 428 1324.11 430.427C1322.03 432.827 1320.99 436.36 1320.99 440.973V448.653C1320.99 453.307 1322.03 456.827 1324.11 459.24C1326.18 461.64 1329.88 462.84 1335.23 462.84C1340.54 462.84 1344.23 461.64 1346.3 459.24C1348.42 456.8 1349.47 453.28 1349.47 448.653V440.973C1349.47 436.36 1348.44 432.827 1346.35 430.427Z" fill="#E8E8E8"/>
<path d="M1384.22 448.439C1384.22 451.586 1383.51 453.786 1382.11 455.053C1380.79 456.266 1378.15 456.866 1374.22 456.866H1371.38C1369.98 456.866 1369.28 456.186 1369.28 454.826V434.626C1369.28 433.279 1369.98 432.586 1371.38 432.586H1374.22C1378.02 432.586 1380.64 433.213 1382.11 434.453C1383.51 435.693 1384.22 437.879 1384.22 441.026V448.439ZM1386.36 430.279C1383.92 428.266 1379.88 427.253 1374.22 427.253H1369.75C1367.6 427.253 1366.04 427.759 1365.08 428.719C1364.11 429.679 1363.63 431.239 1363.63 433.399V456.066C1363.63 458.226 1364.11 459.786 1365.08 460.733C1366.04 461.706 1367.6 462.199 1369.75 462.199H1374.22C1379.78 462.199 1383.79 461.119 1386.28 458.973C1388.78 456.813 1390.02 453.306 1390.02 448.439V441.026C1390.02 435.853 1388.8 432.279 1386.36 430.279Z" fill="#E8E8E8"/>
<path d="M1433.34 447.413L1436.51 435.706C1436.92 434.093 1437.34 433.039 1437.71 432.559C1438.08 432.079 1438.71 431.839 1439.56 431.839C1440.43 431.839 1441.04 432.066 1441.39 432.533C1441.75 432.999 1442.14 434.053 1442.58 435.706L1445.75 447.413H1433.34ZM1454.78 459.839L1448.16 435.799C1447.2 432.333 1446.18 429.973 1445.11 428.719C1444.03 427.413 1442.18 426.773 1439.56 426.773C1436.95 426.773 1435.08 427.413 1433.98 428.719C1432.9 429.973 1431.87 432.333 1430.92 435.799L1424.31 459.839C1424.06 460.759 1424.04 461.399 1424.27 461.706C1424.5 462.039 1425.12 462.199 1426.12 462.199H1426.88C1427.84 462.199 1428.54 462.053 1428.94 461.733C1429.36 461.439 1429.71 460.786 1430 459.839L1431.99 452.519H1447.08L1449.07 459.839C1449.36 460.786 1449.72 461.439 1450.12 461.733C1450.55 462.053 1451.23 462.199 1452.18 462.199H1452.94C1453.95 462.199 1454.55 462.039 1454.8 461.706C1455.03 461.399 1455.02 460.759 1454.78 459.839Z" fill="#E8E8E8"/>
<path d="M1487.63 427.259H1465.21C1464.25 427.259 1463.61 427.419 1463.27 427.751C1462.95 428.072 1462.79 428.713 1462.79 429.687V430.167C1462.79 431.129 1462.95 431.781 1463.27 432.103C1463.61 432.423 1464.25 432.583 1465.21 432.583H1473.6V459.72C1473.6 460.728 1473.76 461.392 1474.08 461.713C1474.4 462.033 1475.07 462.193 1476.08 462.193H1476.82C1477.83 462.193 1478.49 462.033 1478.81 461.713C1479.13 461.392 1479.29 460.728 1479.29 459.72V432.583H1487.63C1488.59 432.583 1489.23 432.423 1489.55 432.103C1489.88 431.781 1490.04 431.129 1490.04 430.167V429.687C1490.04 428.713 1489.88 428.072 1489.55 427.751C1489.23 427.419 1488.59 427.259 1487.63 427.259Z" fill="#E8E8E8"/>
<path d="M1545.28 456.33C1543.53 457.086 1541.22 457.464 1538.35 457.464C1535.27 457.464 1533.04 456.8 1531.67 455.472C1530.28 454.154 1529.59 452.105 1529.59 449.346V440.746C1529.59 437.746 1530.27 435.537 1531.63 434.14C1532.99 432.742 1535.16 432.044 1538.14 432.044C1540.61 432.044 1542.92 432.457 1545.07 433.281C1545.97 433.568 1546.55 433.59 1546.84 433.361C1547.13 433.132 1547.27 432.513 1547.27 431.506V430.705C1547.27 429.88 1547.15 429.32 1546.9 429.01C1546.64 428.701 1546.01 428.334 1545.02 427.91C1543.19 427.154 1540.93 426.777 1538.24 426.777C1528.61 426.777 1523.79 431.437 1523.79 440.746V449.346C1523.79 453.937 1524.97 457.326 1527.34 459.502C1529.7 461.689 1533.34 462.789 1538.24 462.789C1540.93 462.789 1543.25 462.422 1545.24 461.712C1546.09 461.392 1546.68 461.025 1546.98 460.636C1547.29 460.246 1547.43 459.674 1547.43 458.918V458.105C1547.43 457.281 1547.24 456.72 1546.84 456.41C1546.45 456.113 1545.93 456.09 1545.28 456.33Z" fill="#E8E8E8"/>
<path d="M1582.46 448.653C1582.46 451.693 1581.88 453.947 1580.75 455.427C1579.63 456.813 1577.35 457.533 1573.91 457.533C1570.48 457.533 1568.2 456.813 1567.1 455.427C1565.94 453.947 1565.38 451.693 1565.38 448.653V440.973C1565.38 437.813 1565.94 435.56 1567.1 434.2C1568.2 432.8 1570.48 432.093 1573.91 432.093C1577.35 432.093 1579.63 432.8 1580.75 434.2C1581.88 435.56 1582.46 437.813 1582.46 440.973V448.653ZM1585.03 430.427C1582.94 428 1579.22 426.773 1573.91 426.773C1568.62 426.773 1564.91 428 1562.79 430.427C1560.71 432.827 1559.68 436.36 1559.68 440.973V448.653C1559.68 453.307 1560.71 456.827 1562.79 459.24C1564.87 461.64 1568.58 462.84 1573.91 462.84C1579.22 462.84 1582.91 461.64 1584.99 459.24C1587.1 456.8 1588.16 453.28 1588.16 448.653V440.973C1588.16 436.36 1587.11 432.827 1585.03 430.427Z" fill="#E8E8E8"/>
<path d="M1618.16 444.297L1610.54 439.625C1609.21 438.836 1608.31 438.16 1607.85 437.576C1607.38 437.004 1607.15 436.293 1607.15 435.434C1607.15 434.209 1607.63 433.35 1608.57 432.846C1609.52 432.354 1611.07 432.102 1613.22 432.102C1616.06 432.102 1618.6 432.48 1620.85 433.225C1621.75 433.477 1622.33 433.488 1622.59 433.26C1622.87 433.018 1623.01 432.424 1623.01 431.45V430.545C1623.01 429.686 1622.86 429.092 1622.57 428.77C1622.28 428.45 1621.65 428.141 1620.69 427.854C1618.44 427.144 1615.94 426.778 1613.22 426.778C1609.17 426.778 1606.19 427.477 1604.25 428.873C1602.31 430.27 1601.34 432.412 1601.34 435.274C1601.34 438.961 1603.14 441.881 1606.72 444.034L1614.13 448.488C1615.96 449.598 1617.18 450.481 1617.78 451.121C1618.44 451.774 1618.76 452.633 1618.76 453.698C1618.76 455.061 1618.22 456.033 1617.14 456.606C1616.07 457.178 1614.29 457.465 1611.82 457.465C1608.74 457.465 1605.84 457.041 1603.12 456.172C1602.29 455.885 1601.72 455.885 1601.4 456.148C1601.08 456.412 1600.92 457.041 1600.92 458.004V458.862C1600.92 459.721 1601.04 460.316 1601.32 460.637C1601.58 460.957 1602.17 461.266 1603.06 461.553C1605.65 462.377 1608.53 462.789 1611.72 462.789C1620.28 462.789 1624.56 459.756 1624.56 453.698C1624.56 451.59 1624.08 449.84 1623.11 448.465C1622.15 447.08 1620.5 445.694 1618.16 444.297Z" fill="#E8E8E8"/>
<path d="M1662.96 427.751C1662.64 427.419 1662 427.259 1661.03 427.259H1638.63C1637.65 427.259 1637.01 427.419 1636.68 427.751C1636.36 428.072 1636.2 428.712 1636.2 429.685V430.167C1636.2 431.128 1636.36 431.781 1636.68 432.101C1637.01 432.423 1637.65 432.583 1638.63 432.583H1647.01V459.72C1647.01 460.728 1647.17 461.392 1647.49 461.712C1647.81 462.033 1648.47 462.193 1649.47 462.193H1650.22C1651.23 462.193 1651.9 462.033 1652.22 461.712C1652.54 461.392 1652.7 460.728 1652.7 459.72V432.583H1661.03C1662 432.583 1662.64 432.423 1662.96 432.101C1663.29 431.781 1663.45 431.128 1663.45 430.167V429.685C1663.45 428.712 1663.29 428.072 1662.96 427.751Z" fill="#E8E8E8"/>
<path d="M236.178 347.173C274.544 347.173 306.355 326.528 328.896 294.489C351.085 262.949 364.282 220.376 365.884 175.633L365.951 173.501C366.996 125.908 350.507 93.1621 325.951 72.3105C301.389 51.4536 268.736 42.4795 237.431 42.4795C196.086 42.4795 158.41 53.9634 131.076 74.5674C103.746 95.1686 86.751 124.889 86.751 161.387C86.751 170.768 88.8361 179.709 93.5059 186.299C98.1691 192.88 105.421 197.133 115.804 197.133C124.733 197.133 131.991 193.604 137.019 187.746C142.049 181.885 144.857 173.68 144.857 164.319C144.857 155.586 142.158 149.665 139.441 143.499C136.723 137.329 133.991 130.924 133.991 121.267C133.991 109.875 143.576 97.1791 159.216 87.3457C174.87 77.5036 196.641 70.4932 221.124 70.4932C251.464 70.4932 275.034 79.5962 290.703 96.6797C306.126 113.495 313.868 138.012 312.909 169.108L312.857 170.595C311.81 203.629 304.179 240.435 289.901 268.989C275.627 297.538 254.678 317.893 226.978 317.893C215.005 317.893 206.37 313.165 201.157 305.058C195.951 296.961 194.176 285.521 195.846 272.122L195.847 272.112L195.849 272.103L231.794 113.284V113.283C232.205 111.04 231.691 108.906 230.527 107.387C229.366 105.871 227.551 104.959 225.328 105.159C213.196 106.414 200.636 106.413 188.93 105.158H188.929C185.269 104.757 182.022 107.184 181.2 111.279L181.199 111.283L131.053 334.044C130.646 336.073 131.153 338.207 132.318 339.78C133.409 341.253 135.073 342.231 137.107 342.184L137.52 342.16C149.686 340.584 160.736 340.861 171.722 341.936L173.919 342.161C177.566 342.562 180.827 340.136 181.648 336.054V336.051L184.981 320.584L185.102 320.028L185.356 320.537C194.511 338.833 213.238 347.173 236.178 347.173Z" fill="#FFF8DC" stroke="#A0522D" stroke-width="0.4"/>
<path d="M1087.3 347.173C1125.66 347.173 1157.47 326.528 1180.01 294.489C1202.2 262.949 1215.4 220.376 1217 175.633L1217.07 173.501C1218.12 125.908 1201.63 93.1621 1177.07 72.3105C1152.51 51.4536 1119.85 42.4795 1088.55 42.4795C1047.2 42.4795 1009.53 53.9634 982.195 74.5674C954.865 95.1686 937.87 124.889 937.87 161.387C937.87 170.768 939.955 179.709 944.625 186.299C949.288 192.88 956.54 197.133 966.923 197.133C975.853 197.133 983.11 193.604 988.138 187.746C993.168 181.885 995.977 173.68 995.977 164.319C995.976 155.586 993.277 149.665 990.561 143.499C987.842 137.329 985.11 130.924 985.11 121.267C985.11 109.875 994.695 97.1791 1010.33 87.3457C1025.99 77.5036 1047.76 70.4932 1072.24 70.4932C1102.58 70.4932 1126.15 79.5962 1141.82 96.6797C1157.25 113.495 1164.99 138.012 1164.03 169.108L1163.98 170.595C1162.93 203.629 1155.3 240.435 1141.02 268.989C1126.75 297.538 1105.8 317.893 1078.1 317.893C1066.12 317.893 1057.49 313.165 1052.28 305.058C1047.07 296.961 1045.29 285.521 1046.96 272.122L1046.97 272.112L1046.97 272.103L1082.91 113.284V113.283C1083.32 111.04 1082.81 108.906 1081.65 107.387C1080.49 105.871 1078.67 104.959 1076.45 105.159C1064.31 106.414 1051.76 106.413 1040.05 105.158H1040.05C1036.39 104.757 1033.14 107.184 1032.32 111.279L1032.32 111.283L982.172 334.044C981.765 336.073 982.272 338.207 983.438 339.78C984.528 341.253 986.192 342.231 988.227 342.184L988.639 342.16C1000.8 340.584 1011.86 340.861 1022.84 341.936L1025.04 342.161C1028.68 342.562 1031.95 340.136 1032.77 336.054V336.051L1036.1 320.584L1036.22 320.028L1036.48 320.537C1045.63 338.833 1064.36 347.173 1087.3 347.173Z" fill="#FFF8DC" stroke="#A0522D" stroke-width="0.4"/>
<path d="M609.746 110.583C627.356 110.583 643.237 99.5248 643.237 83.2539C643.237 66.5454 627.758 55.5059 610.153 55.5059C592.547 55.5059 577.069 66.5454 577.069 83.2539C577.069 99.5286 592.547 110.583 609.746 110.583Z" fill="#FFF8DC" stroke="#A0522D" stroke-width="0.4"/>
<path d="M1277.96 110.577C1295.58 110.577 1311.46 99.5309 1311.46 83.2549C1311.46 66.5584 1295.98 55.5147 1278.38 55.5146C1260.79 55.5146 1245.3 66.5584 1245.3 83.2549C1245.3 99.5349 1260.79 110.577 1277.96 110.577Z" fill="#FFF8DC" stroke="#A0522D" stroke-width="0.4"/>
<path d="M1381.09 345.62C1433.21 345.62 1461.82 316.546 1462.65 286.54L1462.66 285.831C1462.87 269.249 1456.43 256.972 1444.96 245.703C1433.47 234.424 1416.96 224.168 1397.02 211.633C1389.2 206.893 1383.63 202.149 1380.01 196.98C1376.39 191.808 1374.74 186.221 1374.74 179.812C1374.74 165.718 1387.58 152.09 1406.57 152.09C1416.9 152.09 1422.74 155.811 1425.35 161.654C1427.87 167.289 1427.36 174.843 1425.08 182.791L1424.85 183.562L1424.85 183.569C1419.54 199.062 1429.32 211.666 1442.33 212.493L1442.33 212.492C1450.7 212.897 1457.73 209.835 1462.72 204.128C1467.56 198.596 1470.5 190.564 1470.87 180.763L1470.9 179.809C1470.9 163.446 1463.02 151.388 1451 143.411C1438.97 135.429 1422.78 131.535 1406.17 131.535C1389.97 131.535 1371.72 135.636 1357.54 145.213C1343.36 154.784 1333.23 169.824 1333.23 191.737C1333.23 215.459 1350.39 236.362 1383.26 256.892L1383.26 256.893C1396 264.705 1403.84 271.193 1408.48 277.284C1413.14 283.385 1414.59 289.079 1414.59 295.279C1414.59 303.767 1410.85 310.809 1404.64 315.724C1398.43 320.636 1389.76 323.419 1379.86 323.419C1370.79 323.419 1362.31 320.74 1356.77 315.509C1351.21 310.268 1348.63 302.487 1351.33 292.354V292.354C1353.57 283.357 1352.34 275.71 1348.98 270.268C1345.62 264.827 1340.14 261.575 1333.84 261.369H1333.83C1325.05 260.964 1317.51 263.825 1312.32 269.374C1307.13 274.924 1304.26 283.186 1304.87 293.621C1305.14 296.97 1305.77 300.231 1306.71 303.384L1306.77 303.571L1306.58 303.631C1305.75 303.897 1304.88 304.304 1303.97 304.891C1300.68 307.158 1296.56 309.531 1292.33 311.337C1288.11 313.142 1283.77 314.389 1280.03 314.389C1276.09 314.389 1272.94 313.455 1270.5 311.724C1268.06 309.992 1266.34 307.475 1265.25 304.336C1263.07 298.066 1263.39 289.287 1265.45 279.207V279.206C1270.37 255.78 1286.81 180.205 1294.21 144.854V144.853C1294.61 142.632 1294.21 140.539 1293.02 139.107C1291.84 137.684 1289.86 136.878 1287.04 137.287V137.288H1287.03C1275.93 138.52 1263.98 138.521 1252.46 136.872L1252.45 136.87C1248.09 136.063 1244.87 139.243 1244.05 143.281V143.282L1217.34 273.136L1217.34 273.139L1217.1 274.25C1212.07 297.508 1214.19 315.256 1221.49 327.228C1228.89 339.379 1241.67 345.62 1257.84 345.62C1277.9 345.62 1299.64 334.556 1311.93 321.039L1311.93 321.037C1312.73 320.181 1313.39 319.273 1313.89 318.313L1314.03 318.029L1314.22 318.286C1326.43 334.759 1349.79 345.62 1381.09 345.62Z" fill="#FFF8DC" stroke="#A0522D" stroke-width="0.4"/>
<path d="M1611.21 345.229C1629.64 345.614 1646.85 336.212 1659.96 322.269V322.268C1663.6 318.223 1664 312.556 1662.23 308.722C1661.35 306.807 1659.94 305.366 1658.13 304.798C1656.34 304.231 1654.11 304.52 1651.58 306.144C1648.5 308.399 1645.31 310.354 1642.32 311.746C1639.33 313.138 1636.53 313.975 1634.23 313.975C1631.92 313.975 1629.87 313.294 1628.19 311.94C1626.51 310.588 1625.2 308.574 1624.37 305.925C1622.76 300.797 1622.91 293.266 1625.54 283.439L1625.8 282.48C1633.2 254.133 1641.41 225.771 1648.82 199.068C1656.62 170.144 1651.88 153.382 1642.7 143.847C1633.51 134.299 1619.81 131.935 1609.56 131.935C1582.95 131.935 1559.59 148.718 1542.75 173.367L1542.39 173.215L1551.02 131.294C1553.49 117.715 1556.77 104.163 1560.48 91.8369L1560.53 91.6631L1560.71 91.6982C1570.98 93.7231 1581.22 94.9609 1591.07 94.9609C1615.29 94.9609 1632.4 90.0353 1643.5 82.1084C1654.59 74.1869 1659.7 63.2575 1659.91 51.1982V51.1973C1660.11 41.6004 1656.03 31.8993 1646.89 24.5928C1637.74 17.284 1623.51 12.3614 1603.4 12.3613C1578.4 12.3613 1549.29 22.1999 1527.95 56.6533L1527.86 56.7998L1527.7 56.7324C1493.99 42.3352 1459.92 23.4551 1418.07 23.4551C1375.85 23.4552 1354.95 49.695 1347.99 65.2568H1347.98C1346.17 69.5078 1346.79 74.3461 1349.44 77C1350.76 78.3226 1352.6 79.1144 1354.91 79.0225C1357.23 78.9303 1360.05 77.9494 1363.32 75.7031L1363.32 75.7021C1376.09 67.0333 1393.8 62.1084 1417.26 62.1084C1452.63 62.1084 1485.53 71.5567 1516.34 80.1953L1516.55 80.2559L1516.47 80.4629C1511.97 91.5312 1507.84 104.679 1504.99 119.865L1504.99 119.869L1459.79 334.35C1459.38 336.354 1459.87 338.559 1461.02 340.159C1462.13 341.704 1463.84 342.673 1465.92 342.371L1466.13 342.338L1466.13 342.337C1477.66 340.694 1488.34 341.096 1500.28 342.336L1500.28 342.335L1500.66 342.362L1500.66 342.361C1500.85 342.374 1501.04 342.374 1501.23 342.361H1501.25L1518.23 342.573L1542.47 285.696L1542.48 285.68L1542.49 285.664C1544.53 282.578 1544.67 278.547 1542.6 275.514L1542.6 275.513C1534.89 264.013 1533.64 246.152 1540.51 228.842L1540.84 228.019C1545.91 215.79 1554.1 206.209 1563.25 200.604C1572.41 195 1582.55 193.366 1591.49 197.07H1591.49C1592.54 197.512 1593.59 198.011 1594.57 198.59C1595.82 199.302 1597 200.12 1598.1 201.047C1600.45 202.981 1602.51 205.332 1604.2 208.016C1605.67 210.337 1606.88 212.91 1607.84 215.669L1607.85 215.67C1611.66 226.775 1611.16 241 1605.45 254.745C1605.44 254.777 1605.43 254.804 1605.43 254.82C1605.42 254.845 1605.41 254.854 1605.41 254.863L1605.41 254.878L1605.4 254.892C1602.36 262.192 1598.22 268.512 1593.42 273.627V273.633L1593.37 273.688C1587.4 280.972 1581.1 284.526 1575.96 286.244H1575.96C1574.22 286.821 1572.62 287.197 1571.2 287.426C1567.39 288.052 1564.4 291 1563.76 294.808L1563.76 294.825L1563.75 294.841L1546.46 343.785L1546.93 343.802L1546.93 343.803L1611.21 345.229ZM1627.83 52.0352C1627.63 57.647 1624.83 63.3533 1618.93 67.5459C1613.21 71.6057 1604.6 74.2406 1592.64 74.0186L1591.48 73.9883C1583.25 73.9877 1575.41 72.7576 1568.03 71.1162L1567.79 71.0654L1567.88 70.8457C1576.5 49.872 1588.9 34.9746 1607.51 34.9746C1614.33 34.9747 1619.41 36.8347 1622.79 39.9082C1626.17 42.9832 1627.83 47.2539 1627.83 52.0283H1627.83L1627.83 52.0352Z" fill="#FFF8DC" stroke="#A0522D" stroke-width="0.4"/>
<mask id="path-21-inside-1_1843_25218" fill="white">
<path d="M779.471 399.813C778.577 399.853 777.711 399.893 776.791 399.893C762.551 399.893 756.017 393.773 756.017 386.44C756.284 380.68 759.457 375.84 766.684 372.973C771.217 371.173 777.364 370.147 785.364 370.147C795.537 370.147 806.137 371.373 816.311 373.813C806.337 391.093 793.831 398.96 779.471 399.813ZM479.484 269.92C478.884 268.613 478.604 267.32 477.964 266.16C476.164 262.667 473.404 262.413 469.231 261.04C475.431 256.627 483.711 262.987 479.484 269.92ZM471.937 268.587C471.751 269.387 471.551 270.213 471.351 271.013C471.351 272.04 470.831 272.56 470.831 273.093C460.951 299.053 437.071 319.32 415.777 319.32C397.604 319.32 386.151 307.387 386.151 290.76C386.151 281.6 388.884 273.827 393.671 266.987C395.897 263.747 398.644 260.72 401.751 257.84C404.057 267.453 416.164 298.347 472.524 266.08C472.324 266.92 472.111 267.747 471.937 268.587ZM408.257 257.84C406.204 256.627 404.217 254.92 401.871 254.96C399.897 254.867 397.604 255.827 394.751 256.84C397.084 249.587 407.524 249.773 408.257 257.84ZM1022.04 365.267C1009.4 373.813 991.484 377.893 970.297 377.893C938.924 377.893 909.204 371.373 880.697 364.453C883.937 357.107 886.791 348.96 888.831 339.613L927.937 145.293C928.751 140.813 926.311 136.72 921.831 137.133C914.204 137.907 906.577 138.32 899.071 138.36C891.671 138.387 884.377 138.067 877.244 137.36C876.484 137.293 875.724 137.213 874.977 137.133C871.311 136.72 868.044 139.173 867.244 143.24L846.057 253.64C837.497 280.947 821.217 297.227 807.351 297.227C799.617 297.227 795.951 291.933 795.951 282.573C795.951 270.347 811.431 194.573 822.431 144.48C823.244 140.813 820.791 136.72 816.311 137.133C814.764 137.307 813.231 137.44 811.671 137.573C798.124 138.733 784.351 138.6 771.231 137.147C771.177 137.147 771.151 137.133 771.097 137.133C767.444 136.72 764.177 139.173 763.364 142.84L741.351 260.173C737.831 278.707 737.791 292.68 739.951 303.2C738.817 303.427 737.591 303.907 736.297 304.733C730.124 308.827 720.271 314.187 710.417 314.187C696.844 314.187 687.804 301.853 692.751 276.787C702.191 229.947 728.084 111.187 739.177 59.8268C739.457 58.4668 739.457 57.2401 739.231 56.1334C739.151 54.7201 738.684 53.4268 737.844 52.4135C737.004 51.4268 735.791 50.7468 734.204 50.5335C733.231 50.2135 732.204 50.0401 731.137 50.0401C729.671 50.0401 728.177 50.3601 726.804 51.0268C723.097 51.2935 719.244 51.4401 715.351 51.4401C708.844 51.4401 702.231 51.0401 696.057 50.1468C691.537 49.3201 688.257 52.6268 687.431 56.7201L680.964 88.1468L673.191 126.013C672.951 128.36 672.497 131.08 671.777 134.213L643.017 268.987C640.271 281.787 639.457 293.2 640.444 303.093C638.991 303.12 637.364 303.613 635.631 304.733C629.057 309.267 619.191 314.187 611.791 314.187C596.177 314.187 593.311 299.387 597.417 279.24C600.004 266.96 605.764 240.24 611.737 212.533C617.124 187.52 622.671 161.68 626.191 144.893C627.004 140.36 624.537 136.253 618.777 137.08C607.697 138.307 595.777 138.307 584.257 136.667C579.751 135.84 576.457 139.133 575.631 143.24L561.391 212.533L548.924 273.093C546.324 284.76 545.471 295.08 546.177 303.987L546.457 305C545.324 305.213 544.111 305.707 542.817 306.533C536.084 311.16 529.764 314.533 524.711 314.533C515.017 314.533 512.071 304 516.697 282.533L533.537 204.213C545.764 144.867 503.217 127.587 470.391 127.587C432.911 127.587 395.017 143.173 386.604 178.96C383.244 194.107 393.337 206.747 407.231 206.333C421.551 205.907 431.644 196.653 437.124 178.12C441.337 164.64 448.084 149.467 467.431 149.467C481.351 149.467 494.391 160.44 488.911 184.013L486.391 195.787C482.177 207.587 459.857 213.067 429.537 221.067C392.497 231.173 351.244 247.16 350.817 295.16C350.817 320.853 368.924 346.973 407.231 347.373C427.017 347.373 449.737 336.44 465.337 314.533C468.697 337.267 483.444 346.973 502.817 346.973C520.497 347.373 538.164 337.68 551.657 323.387L552.444 326.2C559.777 339.16 572.897 345.813 589.604 345.813C609.751 345.813 631.511 334.72 643.844 321.16C644.097 320.893 644.337 320.627 644.564 320.347C651.351 336.76 665.657 345.813 686.151 345.813C711.231 345.813 731.351 335.547 744.924 321.16C745.457 320.587 745.924 319.96 746.324 319.32C746.484 319.573 746.657 319.84 746.844 320.107C746.857 320.133 746.884 320.16 746.911 320.2C756.511 333.72 771.991 335.12 780.871 335.12C804.511 335.12 822.844 322.493 835.857 305.373L834.137 314.013L830.564 331.853C828.951 339.2 827.324 346.12 825.271 352.227C811.831 349.787 797.977 348.147 784.137 348.147C764.711 348.147 750.284 351.653 740.017 357.267C731.031 362.187 725.244 368.747 722.151 376.027C720.351 380.267 719.457 384.76 719.364 389.293C719.364 407.627 733.617 426.773 779.644 426.773C781.377 426.773 783.151 426.747 785.017 426.64C806.697 425.613 837.297 418.147 860.004 395.147C861.204 393.933 862.404 392.653 863.564 391.333C896.977 406 930.377 422.707 969.084 422.707C1013.07 422.707 1032.63 393.373 1038.74 377.08C1042 368.12 1035.47 356.293 1022.04 365.267Z"/>
</mask>
<path d="M779.471 399.813C778.577 399.853 777.711 399.893 776.791 399.893C762.551 399.893 756.017 393.773 756.017 386.44C756.284 380.68 759.457 375.84 766.684 372.973C771.217 371.173 777.364 370.147 785.364 370.147C795.537 370.147 806.137 371.373 816.311 373.813C806.337 391.093 793.831 398.96 779.471 399.813ZM479.484 269.92C478.884 268.613 478.604 267.32 477.964 266.16C476.164 262.667 473.404 262.413 469.231 261.04C475.431 256.627 483.711 262.987 479.484 269.92ZM471.937 268.587C471.751 269.387 471.551 270.213 471.351 271.013C471.351 272.04 470.831 272.56 470.831 273.093C460.951 299.053 437.071 319.32 415.777 319.32C397.604 319.32 386.151 307.387 386.151 290.76C386.151 281.6 388.884 273.827 393.671 266.987C395.897 263.747 398.644 260.72 401.751 257.84C404.057 267.453 416.164 298.347 472.524 266.08C472.324 266.92 472.111 267.747 471.937 268.587ZM408.257 257.84C406.204 256.627 404.217 254.92 401.871 254.96C399.897 254.867 397.604 255.827 394.751 256.84C397.084 249.587 407.524 249.773 408.257 257.84ZM1022.04 365.267C1009.4 373.813 991.484 377.893 970.297 377.893C938.924 377.893 909.204 371.373 880.697 364.453C883.937 357.107 886.791 348.96 888.831 339.613L927.937 145.293C928.751 140.813 926.311 136.72 921.831 137.133C914.204 137.907 906.577 138.32 899.071 138.36C891.671 138.387 884.377 138.067 877.244 137.36C876.484 137.293 875.724 137.213 874.977 137.133C871.311 136.72 868.044 139.173 867.244 143.24L846.057 253.64C837.497 280.947 821.217 297.227 807.351 297.227C799.617 297.227 795.951 291.933 795.951 282.573C795.951 270.347 811.431 194.573 822.431 144.48C823.244 140.813 820.791 136.72 816.311 137.133C814.764 137.307 813.231 137.44 811.671 137.573C798.124 138.733 784.351 138.6 771.231 137.147C771.177 137.147 771.151 137.133 771.097 137.133C767.444 136.72 764.177 139.173 763.364 142.84L741.351 260.173C737.831 278.707 737.791 292.68 739.951 303.2C738.817 303.427 737.591 303.907 736.297 304.733C730.124 308.827 720.271 314.187 710.417 314.187C696.844 314.187 687.804 301.853 692.751 276.787C702.191 229.947 728.084 111.187 739.177 59.8268C739.457 58.4668 739.457 57.2401 739.231 56.1334C739.151 54.7201 738.684 53.4268 737.844 52.4135C737.004 51.4268 735.791 50.7468 734.204 50.5335C733.231 50.2135 732.204 50.0401 731.137 50.0401C729.671 50.0401 728.177 50.3601 726.804 51.0268C723.097 51.2935 719.244 51.4401 715.351 51.4401C708.844 51.4401 702.231 51.0401 696.057 50.1468C691.537 49.3201 688.257 52.6268 687.431 56.7201L680.964 88.1468L673.191 126.013C672.951 128.36 672.497 131.08 671.777 134.213L643.017 268.987C640.271 281.787 639.457 293.2 640.444 303.093C638.991 303.12 637.364 303.613 635.631 304.733C629.057 309.267 619.191 314.187 611.791 314.187C596.177 314.187 593.311 299.387 597.417 279.24C600.004 266.96 605.764 240.24 611.737 212.533C617.124 187.52 622.671 161.68 626.191 144.893C627.004 140.36 624.537 136.253 618.777 137.08C607.697 138.307 595.777 138.307 584.257 136.667C579.751 135.84 576.457 139.133 575.631 143.24L561.391 212.533L548.924 273.093C546.324 284.76 545.471 295.08 546.177 303.987L546.457 305C545.324 305.213 544.111 305.707 542.817 306.533C536.084 311.16 529.764 314.533 524.711 314.533C515.017 314.533 512.071 304 516.697 282.533L533.537 204.213C545.764 144.867 503.217 127.587 470.391 127.587C432.911 127.587 395.017 143.173 386.604 178.96C383.244 194.107 393.337 206.747 407.231 206.333C421.551 205.907 431.644 196.653 437.124 178.12C441.337 164.64 448.084 149.467 467.431 149.467C481.351 149.467 494.391 160.44 488.911 184.013L486.391 195.787C482.177 207.587 459.857 213.067 429.537 221.067C392.497 231.173 351.244 247.16 350.817 295.16C350.817 320.853 368.924 346.973 407.231 347.373C427.017 347.373 449.737 336.44 465.337 314.533C468.697 337.267 483.444 346.973 502.817 346.973C520.497 347.373 538.164 337.68 551.657 323.387L552.444 326.2C559.777 339.16 572.897 345.813 589.604 345.813C609.751 345.813 631.511 334.72 643.844 321.16C644.097 320.893 644.337 320.627 644.564 320.347C651.351 336.76 665.657 345.813 686.151 345.813C711.231 345.813 731.351 335.547 744.924 321.16C745.457 320.587 745.924 319.96 746.324 319.32C746.484 319.573 746.657 319.84 746.844 320.107C746.857 320.133 746.884 320.16 746.911 320.2C756.511 333.72 771.991 335.12 780.871 335.12C804.511 335.12 822.844 322.493 835.857 305.373L834.137 314.013L830.564 331.853C828.951 339.2 827.324 346.12 825.271 352.227C811.831 349.787 797.977 348.147 784.137 348.147C764.711 348.147 750.284 351.653 740.017 357.267C731.031 362.187 725.244 368.747 722.151 376.027C720.351 380.267 719.457 384.76 719.364 389.293C719.364 407.627 733.617 426.773 779.644 426.773C781.377 426.773 783.151 426.747 785.017 426.64C806.697 425.613 837.297 418.147 860.004 395.147C861.204 393.933 862.404 392.653 863.564 391.333C896.977 406 930.377 422.707 969.084 422.707C1013.07 422.707 1032.63 393.373 1038.74 377.08C1042 368.12 1035.47 356.293 1022.04 365.267Z" fill="#FFF8DC" stroke="#A0522D" stroke-width="0.8" mask="url(#path-21-inside-1_1843_25218)"/>
</svg>
