<svg width="30" height="27" viewBox="0 0 30 27" fill="none" xmlns="http://www.w3.org/2000/svg">
<mask id="path-1-outside-1_2713_7643" maskUnits="userSpaceOnUse" x="-0.199951" y="0" width="30" height="27" fill="black">
<rect fill="white" x="-0.199951" width="30" height="27"/>
<path d="M0.800049 15.028V13.628H3.47405C3.56738 10.5387 4.62998 7.93747 6.66185 5.8244C8.69372 3.71133 11.1731 2.57267 14.1 2.4084V1H15.5V2.4084C18.4279 2.5736 20.9078 3.71227 22.9396 5.8244C24.9715 7.93653 26.0341 10.5373 26.1274 13.6266H28.8V15.0266L0.800049 15.028ZM4.88945 13.628H24.712C24.6187 10.8112 23.6154 8.46433 21.702 6.5874C19.7906 4.7114 17.4904 3.7734 14.8014 3.7734C12.1125 3.7734 9.81138 4.71093 7.89805 6.586C5.98472 8.46107 4.98185 10.8084 4.88945 13.628ZM19.6594 15.028H8.87805V23.4H16.9714C17.4614 23.4 17.9342 23.3183 18.3896 23.155C18.8451 22.9917 19.259 22.7467 19.6314 22.42L25.4415 17.625C25.1829 17.3487 24.8969 17.1415 24.5833 17.0034C24.2697 16.8653 23.9392 16.7729 23.592 16.7262C23.2131 16.6917 22.8416 16.7257 22.4776 16.8284C22.1136 16.9311 21.7683 17.1107 21.4416 17.3674L18.9538 19.361H12.756V17.961H18.4582L20.239 16.5134C20.3744 16.407 20.4668 16.2777 20.5162 16.1256C20.5648 15.9735 20.5624 15.8092 20.5092 15.6328C20.4551 15.4359 20.3496 15.2856 20.1928 15.182C20.036 15.0793 19.8587 15.028 19.6608 15.028M7.47805 15H4.46105C4.20998 15 4.00372 15.0807 3.84225 15.2422C3.68078 15.4037 3.60005 15.6104 3.60005 15.8624V23.939C3.60005 24.1901 3.68078 24.3963 3.84225 24.5578C4.00372 24.7193 4.20998 24.8 4.46105 24.8H6.61565C6.86671 24.8 7.07298 24.7193 7.23445 24.5578C7.39592 24.3963 7.47665 24.1901 7.47665 23.939L7.47805 15ZM6.61705 26.228H4.46105C3.81705 26.228 3.27898 26.0119 2.84685 25.5798C2.41472 25.1477 2.19912 24.6096 2.20005 23.9656V15.8876C2.20005 15.2436 2.41612 14.706 2.84825 14.2748C3.28038 13.8436 3.81798 13.6275 4.46105 13.6266H19.6328C21.0058 13.6266 22.3045 13.9066 23.529 14.4666C24.7536 15.0266 25.8087 15.8335 26.6945 16.8872L27.4239 17.7832L20.5358 23.54C20.0309 23.9507 19.4695 24.268 18.8516 24.492C18.2347 24.716 17.6075 24.828 16.97 24.828H8.70725C8.54018 25.248 8.26952 25.5859 7.89525 25.8416C7.52005 26.0983 7.09352 26.2266 6.61565 26.2266"/>
</mask>
<path d="M0.800049 15.028V13.628H3.47405C3.56738 10.5387 4.62998 7.93747 6.66185 5.8244C8.69372 3.71133 11.1731 2.57267 14.1 2.4084V1H15.5V2.4084C18.4279 2.5736 20.9078 3.71227 22.9396 5.8244C24.9715 7.93653 26.0341 10.5373 26.1274 13.6266H28.8V15.0266L0.800049 15.028ZM4.88945 13.628H24.712C24.6187 10.8112 23.6154 8.46433 21.702 6.5874C19.7906 4.7114 17.4904 3.7734 14.8014 3.7734C12.1125 3.7734 9.81138 4.71093 7.89805 6.586C5.98472 8.46107 4.98185 10.8084 4.88945 13.628ZM19.6594 15.028H8.87805V23.4H16.9714C17.4614 23.4 17.9342 23.3183 18.3896 23.155C18.8451 22.9917 19.259 22.7467 19.6314 22.42L25.4415 17.625C25.1829 17.3487 24.8969 17.1415 24.5833 17.0034C24.2697 16.8653 23.9392 16.7729 23.592 16.7262C23.2131 16.6917 22.8416 16.7257 22.4776 16.8284C22.1136 16.9311 21.7683 17.1107 21.4416 17.3674L18.9538 19.361H12.756V17.961H18.4582L20.239 16.5134C20.3744 16.407 20.4668 16.2777 20.5162 16.1256C20.5648 15.9735 20.5624 15.8092 20.5092 15.6328C20.4551 15.4359 20.3496 15.2856 20.1928 15.182C20.036 15.0793 19.8587 15.028 19.6608 15.028M7.47805 15H4.46105C4.20998 15 4.00372 15.0807 3.84225 15.2422C3.68078 15.4037 3.60005 15.6104 3.60005 15.8624V23.939C3.60005 24.1901 3.68078 24.3963 3.84225 24.5578C4.00372 24.7193 4.20998 24.8 4.46105 24.8H6.61565C6.86671 24.8 7.07298 24.7193 7.23445 24.5578C7.39592 24.3963 7.47665 24.1901 7.47665 23.939L7.47805 15ZM6.61705 26.228H4.46105C3.81705 26.228 3.27898 26.0119 2.84685 25.5798C2.41472 25.1477 2.19912 24.6096 2.20005 23.9656V15.8876C2.20005 15.2436 2.41612 14.706 2.84825 14.2748C3.28038 13.8436 3.81798 13.6275 4.46105 13.6266H19.6328C21.0058 13.6266 22.3045 13.9066 23.529 14.4666C24.7536 15.0266 25.8087 15.8335 26.6945 16.8872L27.4239 17.7832L20.5358 23.54C20.0309 23.9507 19.4695 24.268 18.8516 24.492C18.2347 24.716 17.6075 24.828 16.97 24.828H8.70725C8.54018 25.248 8.26952 25.5859 7.89525 25.8416C7.52005 26.0983 7.09352 26.2266 6.61565 26.2266" fill="url(#paint0_linear_2713_7643)"/>
<path d="M0.800049 15.028H0.400049V15.428L0.800069 15.428L0.800049 15.028ZM0.800049 13.628V13.228H0.400049V13.628H0.800049ZM3.47405 13.628V14.028H3.86215L3.87387 13.6401L3.47405 13.628ZM14.1 2.4084L14.1225 2.80777L14.5 2.78658V2.4084H14.1ZM14.1 1V0.6H13.7V1H14.1ZM15.5 1H15.9V0.6H15.5V1ZM15.5 2.4084H15.1V2.78647L15.4775 2.80776L15.5 2.4084ZM26.1274 13.6266L25.7276 13.6387L25.7394 14.0266H26.1274V13.6266ZM28.8 13.6266H29.2V13.2266H28.8V13.6266ZM28.8 15.0266L28.8001 15.4266L29.2 15.4266V15.0266H28.8ZM4.88945 13.628L4.48966 13.6149L4.47613 14.028H4.88945V13.628ZM24.712 13.628V14.028H25.1255L25.1118 13.6148L24.712 13.628ZM21.702 6.5874L21.4219 6.87288L21.4219 6.87295L21.702 6.5874ZM8.87805 15.028V14.628H8.47805V15.028H8.87805ZM8.87805 23.4H8.47805V23.8H8.87805V23.4ZM19.6314 22.42L19.3767 22.1114L19.3677 22.1193L19.6314 22.42ZM25.4415 17.625L25.6961 17.9335L26.0244 17.6625L25.7335 17.3517L25.4415 17.625ZM23.592 16.7262L23.6453 16.3298L23.6369 16.3286L23.6284 16.3278L23.592 16.7262ZM21.4416 17.3674L21.1945 17.0529L21.1915 17.0553L21.4416 17.3674ZM18.9538 19.361V19.761H19.0943L19.204 19.6731L18.9538 19.361ZM12.756 19.361H12.356V19.761H12.756V19.361ZM12.756 17.961V17.561H12.356V17.961H12.756ZM18.4582 17.961V18.361H18.6003L18.7106 18.2714L18.4582 17.961ZM20.239 16.5134L19.9918 16.1989L19.9867 16.203L20.239 16.5134ZM20.5162 16.1256L20.8967 16.2493L20.8973 16.2472L20.5162 16.1256ZM20.5092 15.6328L20.1234 15.7389L20.1263 15.7483L20.5092 15.6328ZM20.1928 15.182L20.4134 14.8483L20.412 14.8474L20.1928 15.182ZM7.47805 15L7.87805 15.0001L7.87811 14.6H7.47805V15ZM4.46105 24.8V24.4V24.8ZM7.47665 23.939L7.07665 23.9389V23.939H7.47665ZM2.20005 23.9656L2.60005 23.9662V23.9656H2.20005ZM4.46105 13.6266V13.2266L4.46047 13.2266L4.46105 13.6266ZM26.6945 16.8872L27.0047 16.6346L27.0006 16.6298L26.6945 16.8872ZM27.4239 17.7832L27.6804 18.0901L27.9833 17.8369L27.7341 17.5307L27.4239 17.7832ZM20.5358 23.54L20.7883 23.8503L20.7924 23.8469L20.5358 23.54ZM18.8516 24.492L18.7153 24.1159L18.7151 24.116L18.8516 24.492ZM8.70725 24.828V24.428H8.43588L8.33557 24.6802L8.70725 24.828ZM7.89525 25.8416L7.66958 25.5113L7.6694 25.5115L7.89525 25.8416ZM0.800049 15.028H1.20005V13.628H0.800049H0.400049V15.028H0.800049ZM0.800049 13.628V14.028H3.47405V13.628V13.228H0.800049V13.628ZM3.47405 13.628L3.87387 13.6401C3.96438 10.644 4.99105 8.13906 6.95018 6.10165L6.66185 5.8244L6.37352 5.54715C4.26891 7.73587 3.17038 10.4333 3.07423 13.6159L3.47405 13.628ZM6.66185 5.8244L6.95018 6.10165C8.91201 4.06141 11.2964 2.96638 14.1225 2.80777L14.1 2.4084L14.0776 2.00903C11.0498 2.17896 8.47542 3.36125 6.37352 5.54715L6.66185 5.8244ZM14.1 2.4084H14.5V1H14.1H13.7V2.4084H14.1ZM14.1 1V1.4H15.5V1V0.6H14.1V1ZM15.5 1H15.1V2.4084H15.5H15.9V1H15.5ZM15.5 2.4084L15.4775 2.80776C18.3046 2.96728 20.6896 4.06239 22.6514 6.10171L22.9396 5.8244L23.2279 5.54709C21.126 3.36214 18.5512 2.17992 15.5226 2.00904L15.5 2.4084ZM22.9396 5.8244L22.6514 6.10171C24.6104 8.13817 25.6371 10.6426 25.7276 13.6387L26.1274 13.6266L26.5273 13.6145C26.4311 10.4319 25.3326 7.7349 23.2279 5.54709L22.9396 5.8244ZM26.1274 13.6266V14.0266H28.8V13.6266V13.2266H26.1274V13.6266ZM28.8 13.6266H28.4V15.0266H28.8H29.2V13.6266H28.8ZM28.8 15.0266L28.8 14.6266L0.800029 14.628L0.800049 15.028L0.800069 15.428L28.8001 15.4266L28.8 15.0266ZM4.88945 13.628V14.028H24.712V13.628V13.228H4.88945V13.628ZM24.712 13.628L25.1118 13.6148C25.0153 10.701 23.973 8.25479 21.9822 6.30185L21.702 6.5874L21.4219 6.87295C23.2578 8.67387 24.2221 10.9214 24.3123 13.6412L24.712 13.628ZM21.702 6.5874L21.9822 6.30192C19.9956 4.35219 17.5947 3.3734 14.8014 3.3734V3.7734V4.1734C17.3861 4.1734 19.5855 5.07061 21.4219 6.87288L21.702 6.5874ZM14.8014 3.7734V3.3734C12.0083 3.3734 9.60649 4.35167 7.61808 6.30031L7.89805 6.586L8.17802 6.87168C10.0163 5.0702 12.2168 4.1734 14.8014 4.1734V3.7734ZM7.89805 6.586L7.61808 6.30031C5.62702 8.25155 4.58524 10.6984 4.48966 13.6149L4.88945 13.628L5.28923 13.6411C5.37846 10.9184 6.34241 8.67058 8.17802 6.87168L7.89805 6.586ZM19.6594 15.028V14.628H8.87805V15.028V15.428H19.6594V15.028ZM8.87805 15.028H8.47805V23.4H8.87805H9.27805V15.028H8.87805ZM8.87805 23.4V23.8H16.9714V23.4V23H8.87805V23.4ZM16.9714 23.4V23.8C17.5069 23.8 18.0253 23.7106 18.5247 23.5315L18.3896 23.155L18.2546 22.7785C17.843 22.9261 17.416 23 16.9714 23V23.4ZM18.3896 23.155L18.5247 23.5315C19.0286 23.3508 19.486 23.0797 19.8952 22.7207L19.6314 22.42L19.3677 22.1193C19.0321 22.4136 18.6617 22.6325 18.2546 22.7785L18.3896 23.155ZM19.6314 22.42L19.8861 22.7285L25.6961 17.9335L25.4415 17.625L25.1868 17.3165L19.3768 22.1115L19.6314 22.42ZM25.4415 17.625L25.7335 17.3517C25.4419 17.0401 25.1124 16.7994 24.7445 16.6373L24.5833 17.0034L24.422 17.3695C24.6813 17.4837 24.9239 17.6573 25.1494 17.8983L25.4415 17.625ZM24.5833 17.0034L24.7445 16.6373C24.3957 16.4837 24.0289 16.3813 23.6453 16.3298L23.592 16.7262L23.5388 17.1226C23.8496 17.1644 24.1436 17.2468 24.422 17.3695L24.5833 17.0034ZM23.592 16.7262L23.6284 16.3278C23.201 16.2889 22.7804 16.3274 22.3691 16.4434L22.4776 16.8284L22.5862 17.2134C22.9029 17.1241 23.2252 17.0944 23.5557 17.1245L23.592 16.7262ZM22.4776 16.8284L22.3691 16.4434C21.95 16.5616 21.5583 16.7671 21.1945 17.0529L21.4416 17.3674L21.6888 17.6819C21.9784 17.4544 22.2773 17.3005 22.5862 17.2134L22.4776 16.8284ZM21.4416 17.3674L21.1915 17.0553L18.7037 19.0489L18.9538 19.361L19.204 19.6731L21.6918 17.6795L21.4416 17.3674ZM18.9538 19.361V18.961H12.756V19.361V19.761H18.9538V19.361ZM12.756 19.361H13.156V17.961H12.756H12.356V19.361H12.756ZM12.756 17.961V18.361H18.4582V17.961V17.561H12.756V17.961ZM18.4582 17.961L18.7106 18.2714L20.4914 16.8238L20.239 16.5134L19.9867 16.203L18.2059 17.6506L18.4582 17.961ZM20.239 16.5134L20.4863 16.8279C20.6789 16.6764 20.8208 16.4826 20.8966 16.2493L20.5162 16.1256L20.1359 16.0019C20.1128 16.0729 20.0698 16.1376 19.9918 16.1989L20.239 16.5134ZM20.5162 16.1256L20.8973 16.2472C20.9741 16.0067 20.9651 15.7588 20.8922 15.5173L20.5092 15.6328L20.1263 15.7483C20.1598 15.8596 20.1555 15.9403 20.1352 16.004L20.5162 16.1256ZM20.5092 15.6328L20.8949 15.5268C20.8175 15.2452 20.6582 15.0101 20.4134 14.8483L20.1928 15.182L19.9723 15.5157C20.0411 15.5611 20.0927 15.6265 20.1236 15.7388L20.5092 15.6328ZM20.1928 15.182L20.412 14.8474C20.1863 14.6996 19.932 14.628 19.6608 14.628V15.028V15.428C19.7854 15.428 19.8858 15.4591 19.9737 15.5166L20.1928 15.182ZM7.47805 15V14.6H4.46105V15V15.4H7.47805V15ZM4.46105 15V14.6C4.11549 14.6 3.80371 14.7151 3.55941 14.9594L3.84225 15.2422L4.12509 15.525C4.20372 15.4464 4.30447 15.4 4.46105 15.4V15ZM3.84225 15.2422L3.55941 14.9594C3.31481 15.204 3.20005 15.5164 3.20005 15.8624H3.60005H4.00005C4.00005 15.7044 4.04676 15.6034 4.12509 15.525L3.84225 15.2422ZM3.60005 15.8624H3.20005V23.939H3.60005H4.00005V15.8624H3.60005ZM3.60005 23.939H3.20005C3.20005 24.2846 3.3151 24.5963 3.55941 24.8406L3.84225 24.5578L4.12509 24.275C4.04646 24.1963 4.00005 24.0956 4.00005 23.939H3.60005ZM3.84225 24.5578L3.55941 24.8406C3.80371 25.0849 4.11549 25.2 4.46105 25.2V24.8V24.4C4.30447 24.4 4.20372 24.3536 4.12509 24.275L3.84225 24.5578ZM4.46105 24.8V25.2H6.61565V24.8V24.4H4.46105V24.8ZM6.61565 24.8V25.2C6.96121 25.2 7.27299 25.0849 7.51729 24.8406L7.23445 24.5578L6.95161 24.275C6.87297 24.3536 6.77222 24.4 6.61565 24.4V24.8ZM7.23445 24.5578L7.51729 24.8406C7.76159 24.5963 7.87665 24.2846 7.87665 23.939H7.47665H7.07665C7.07665 24.0956 7.03024 24.1963 6.95161 24.275L7.23445 24.5578ZM7.47665 23.939L7.87665 23.9391L7.87805 15.0001L7.47805 15L7.07805 14.9999L7.07665 23.9389L7.47665 23.939ZM6.61705 26.228V25.828H4.46105V26.228V26.628H6.61705V26.228ZM4.46105 26.228V25.828C3.91679 25.828 3.48244 25.6497 3.12969 25.297L2.84685 25.5798L2.56401 25.8626C3.07552 26.3742 3.7173 26.628 4.46105 26.628V26.228ZM2.84685 25.5798L3.12969 25.297C2.77709 24.9444 2.59926 24.5102 2.60005 23.9662L2.20005 23.9656L1.80005 23.965C1.79897 24.7089 2.05234 25.351 2.56401 25.8626L2.84685 25.5798ZM2.20005 23.9656H2.60005V15.8876H2.20005H1.80005V23.9656H2.20005ZM2.20005 15.8876H2.60005C2.60005 15.3433 2.77833 14.9096 3.13079 14.5579L2.84825 14.2748L2.56571 13.9917C2.05391 14.5024 1.80005 15.1438 1.80005 15.8876H2.20005ZM2.84825 14.2748L3.13079 14.5579C3.48375 14.2057 3.91803 14.0274 4.46163 14.0266L4.46105 13.6266L4.46047 13.2266C3.71794 13.2277 3.07702 13.4814 2.56571 13.9917L2.84825 14.2748ZM4.46105 13.6266V14.0266H19.6328V13.6266V13.2266H4.46105V13.6266ZM19.6328 13.6266V14.0266C20.9495 14.0266 22.1914 14.2947 23.3627 14.8304L23.529 14.4666L23.6954 14.1028C22.4176 13.5185 21.062 13.2266 19.6328 13.2266V13.6266ZM23.529 14.4666L23.3627 14.8304C24.5321 15.3651 25.5398 16.1352 26.3883 17.1446L26.6945 16.8872L27.0006 16.6298C26.0776 15.5317 24.9751 14.6881 23.6954 14.1028L23.529 14.4666ZM26.6945 16.8872L26.3842 17.1397L27.1136 18.0357L27.4239 17.7832L27.7341 17.5307L27.0047 16.6347L26.6945 16.8872ZM27.4239 17.7832L27.1673 17.4763L20.2793 23.2331L20.5358 23.54L20.7924 23.8469L27.6804 18.0901L27.4239 17.7832ZM20.5358 23.54L20.2835 23.2297C19.8136 23.6118 19.2915 23.9071 18.7153 24.1159L18.8516 24.492L18.988 24.868C19.6475 24.6289 20.2482 24.2895 20.7882 23.8503L20.5358 23.54ZM18.8516 24.492L18.7151 24.116C18.1406 24.3246 17.5596 24.428 16.97 24.428V24.828V25.228C17.6555 25.228 18.3288 25.1074 18.9882 24.868L18.8516 24.492ZM16.97 24.828V24.428H8.70725V24.828V25.228H16.97V24.828ZM8.70725 24.828L8.33557 24.6802C8.19803 25.0259 7.97831 25.3004 7.66958 25.5113L7.89525 25.8416L8.12092 26.1719C8.56072 25.8713 8.88234 25.4701 9.07892 24.9758L8.70725 24.828ZM7.89525 25.8416L7.6694 25.5115C7.36424 25.7202 7.01728 25.8266 6.61565 25.8266V26.2266V26.6266C7.16975 26.6266 7.67586 26.4763 8.12109 26.1717L7.89525 25.8416Z" fill="#FFF8DC" mask="url(#path-1-outside-1_2713_7643)"/>
<defs>
<linearGradient id="paint0_linear_2713_7643" x1="15.2" y1="25" x2="15.2" y2="2.2" gradientUnits="userSpaceOnUse">
<stop stop-color="white"/>
<stop offset="1" stop-color="white"/>
</linearGradient>
</defs>
</svg>
