<svg width="18" height="24" viewBox="0 0 18 24" fill="none" xmlns="http://www.w3.org/2000/svg">
<path fill-rule="evenodd" clip-rule="evenodd" d="M15.0341 9.11317C15.0371 10.4937 14.5936 11.8383 13.7698 12.9461L8.59091 19.8518L3.41202 12.9461C2.80566 12.1269 2.40229 11.1755 2.23505 10.1701C2.06782 9.1647 2.14149 8.13396 2.45001 7.16255C2.75852 6.19114 3.29309 5.30679 4.0098 4.58212C4.72651 3.85745 5.60491 3.31315 6.57286 2.99392C7.5408 2.67469 8.57066 2.58964 9.57786 2.74576C10.5851 2.90189 11.5408 3.29472 12.3667 3.892C13.1926 4.48929 13.865 5.27397 14.3287 6.18161C14.7924 7.08925 15.0341 8.09395 15.0341 9.11317ZM17.1818 9.11317C17.1818 11.0318 16.5533 12.8015 15.4923 14.2305L9.93252 21.6416L8.59091 23.4314L7.24786 21.6416L1.68955 14.2305C0.880119 13.1386 0.34131 11.8703 0.117389 10.5297C-0.106531 9.18908 -0.00917237 7.81448 0.401467 6.51883C0.812105 5.22317 1.5243 4.04343 2.47955 3.07655C3.43479 2.10967 4.60581 1.38324 5.8964 0.956937C7.18699 0.530638 8.56031 0.416639 9.90352 0.624308C11.2467 0.831977 12.5215 1.35539 13.6231 2.15153C14.7247 2.94768 15.6217 3.99384 16.2403 5.20405C16.859 6.41427 17.1816 7.754 17.1818 9.11317ZM8.59091 11.9768C9.35039 11.9768 10.0788 11.6751 10.6158 11.1381C11.1528 10.601 11.4545 9.87265 11.4545 9.11317C11.4545 8.35369 11.1528 7.62531 10.6158 7.08827C10.0788 6.55124 9.35039 6.24953 8.59091 6.24953C7.83143 6.24953 7.10305 6.55124 6.56601 7.08827C6.02898 7.62531 5.72727 8.35369 5.72727 9.11317C5.72727 9.87265 6.02898 10.601 6.56601 11.1381C7.10305 11.6751 7.83143 11.9768 8.59091 11.9768Z" fill="#FFF8DC"/>
</svg>
