<svg width="24" height="24" viewBox="0 0 24 24" fill="none" xmlns="http://www.w3.org/2000/svg">
<path d="M9.71566 8.66615C10.321 8.35632 11.021 8.28633 11.6757 8.47015C13.3407 8.76415 14.6157 10.3321 14.6157 12.0961V14.9381C14.6157 16.0161 13.7327 16.8981 12.6557 16.8981H10.6957L8.63766 21.0141C8.52932 21.2401 8.37347 21.4399 8.18076 21.6C7.98805 21.7602 7.76304 21.8768 7.5211 21.9419C7.27917 22.0071 7.02602 22.0192 6.77896 21.9774C6.53191 21.9357 6.29679 21.8411 6.08966 21.7001C5.30566 21.2101 5.10966 20.2301 5.50166 19.4461L6.77566 16.8981" stroke="white" stroke-miterlimit="10" stroke-linecap="round" stroke-linejoin="round"/>
<path d="M3.34587 16.898L2.07187 19.446C1.67987 20.23 1.87587 21.21 2.65987 21.7C2.867 21.841 3.10212 21.9356 3.34918 21.9773C3.59623 22.0191 3.84938 22.007 4.09131 21.9418C4.33325 21.8767 4.55826 21.7601 4.75097 21.5999C4.94368 21.4398 5.09953 21.24 5.20787 21.014L5.37787 20.746M21.0649 22.002H13.2249M16.1649 8.28205H18.1249C19.7909 8.28205 21.0649 9.55605 21.0649 11.222V14.162M21.0649 14.162H20.0849C19.0069 14.162 18.1249 15.044 18.1249 16.122V22.002H23.0249V16.122C23.0249 15.044 22.1429 14.162 21.0649 14.162ZM8.24587 13.86H2.65987C2.50925 13.8579 2.36286 13.8098 2.24028 13.7223C2.11769 13.6347 2.02475 13.5118 1.97387 13.37L0.993875 9.84205C0.895875 9.35205 1.18987 8.96005 1.67987 8.96005H6.38387C6.67787 8.96005 6.97187 9.15605 7.06987 9.45005L8.24587 13.86ZM8.24587 13.86H11.1859M10.6959 6.89805C11.0176 6.89805 11.3362 6.83468 11.6334 6.71155C11.9307 6.58843 12.2008 6.40796 12.4283 6.18046C12.6558 5.95296 12.8363 5.68287 12.9594 5.38562C13.0825 5.08837 13.1459 4.76979 13.1459 4.44805C13.1459 4.12631 13.0825 3.80772 12.9594 3.51047C12.8363 3.21322 12.6558 2.94314 12.4283 2.71564C12.2008 2.48813 11.9307 2.30767 11.6334 2.18454C11.3362 2.06142 11.0176 1.99805 10.6959 1.99805C10.0461 1.99805 9.42293 2.25617 8.96346 2.71564C8.504 3.1751 8.24587 3.79827 8.24587 4.44805C8.24587 5.09783 8.504 5.72099 8.96346 6.18046C9.42293 6.63992 10.0461 6.89805 10.6959 6.89805Z" stroke="white" stroke-miterlimit="10" stroke-linecap="round" stroke-linejoin="round"/>
</svg>
