<svg width="39" height="39" viewBox="0 0 39 39" fill="none" xmlns="http://www.w3.org/2000/svg">
<path d="M19.2979 0.511719C24.2593 0.325701 29.493 2.62721 32.9463 6.09277C39.617 12.7874 40.3247 23.5864 34.5059 31.1016C30.9967 35.6338 25.4064 38.4664 19.6455 38.4512L19.6465 38.4521L19.3164 38.4531H19.3145C9.57834 38.4377 1.37562 30.7887 0.56543 21.0957C-0.340448 10.2576 8.31301 0.449455 19.2988 0.510742L19.2979 0.511719ZM18.7852 4.53613C14.8529 4.9333 11.6421 6.22012 8.89355 9.03418C4.04414 13.9995 3.29914 21.625 6.96191 27.5488C7.13005 27.8208 7.30006 28.0918 7.47754 28.3496C7.88857 27.105 8.35402 26.0052 9.02148 25.0244C9.85524 23.7994 10.9844 22.7862 12.6553 21.8838C13.3064 21.5322 14.5913 20.9004 15.3652 20.7178L15.54 20.6768L15.7002 20.7559C17.3332 21.56 18.3392 21.9775 20.1787 21.8457C20.8846 21.6781 21.4766 21.5854 22.0596 21.3398C22.2324 21.267 22.4011 21.1726 22.6025 21.0605C22.7942 20.9539 23.0168 20.8313 23.2568 20.7383L23.4277 20.6719L23.6006 20.7314C26.7399 21.8166 29.2236 23.1409 30.8467 26.4727C31.1407 27.0763 31.3413 27.6954 31.5215 28.2998C31.5822 28.2184 31.6442 28.1403 31.7012 28.0586C38.7055 18.0087 31.1914 4.05172 18.7852 4.53613Z" fill="#6B6B6B" stroke="#C0C0C0"/>
<path d="M19.2861 7.50488C24.6849 7.28238 27.6341 13.9238 23.9287 17.9922C22.8888 19.1338 21.4027 19.8201 19.8584 19.8975C16.5414 19.9649 13.7202 17.5973 13.5127 14.251C13.2957 10.7511 15.7781 7.72579 19.2861 7.50488Z" fill="#6B6B6B" stroke="#C0C0C0"/>
</svg>
